<svg width="24" height="25" viewBox="0 0 24 25" fill="none" xmlns="http://www.w3.org/2000/svg">
<path fill-rule="evenodd" clip-rule="evenodd" d="M12 0.949951C5.37527 0.949951 0 6.32522 0 12.95C0 19.5747 5.37527 24.95 12 24.95C18.6117 24.95 24 19.5747 24 12.95C24 6.32522 18.6117 0.949951 12 0.949951ZM19.9262 6.4814C21.3579 8.22544 22.217 10.451 22.243 12.8588C21.9046 12.7938 18.5206 12.104 15.1106 12.5335C15.0325 12.3643 14.9675 12.182 14.8894 11.9999C14.6811 11.5053 14.4469 10.9977 14.2126 10.5161C17.9869 8.98035 19.705 6.76774 19.9262 6.4814ZM12 2.72002C14.603 2.72002 16.9848 3.69616 18.7939 5.29703C18.6117 5.55733 17.0629 7.62674 13.4186 8.99333C11.7397 5.90873 9.87855 3.38379 9.5922 2.99333C10.3601 2.81112 11.1671 2.72002 12 2.72002ZM7.63995 3.68314C7.91325 4.04756 9.73538 6.58553 11.4404 9.60503C6.65076 10.8806 2.42083 10.8545 1.96529 10.8545C2.62907 7.6788 4.77657 5.03672 7.63995 3.68314ZM1.74404 12.963C1.74404 12.8588 1.74404 12.7547 1.74404 12.6506C2.18655 12.6636 7.15835 12.7287 12.2733 11.1929C12.5727 11.7656 12.846 12.3512 13.1063 12.9369C12.9761 12.976 12.8329 13.0151 12.7028 13.0541C7.41865 14.759 4.60738 19.4185 4.3731 19.8089C2.7462 17.9999 1.74404 15.5921 1.74404 12.963ZM12 23.2059C9.6312 23.2059 7.44469 22.399 5.71367 21.0454C5.89588 20.668 7.97827 16.6593 13.757 14.642C13.783 14.6289 13.7961 14.6289 13.8221 14.6159C15.2668 18.3512 15.8525 21.4879 16.0087 22.3859C14.7722 22.9196 13.4186 23.2059 12 23.2059ZM17.7136 21.4489C17.6096 20.8241 17.0629 17.8307 15.7223 14.1473C18.9371 13.6397 21.7484 14.4728 22.0998 14.5899C21.6573 17.4402 20.0173 19.9001 17.7136 21.4489Z" fill="#98A2B3"/>
</svg>
