<svg width="19" height="19" viewBox="0 0 19 19" fill="none" xmlns="http://www.w3.org/2000/svg">
<g clip-path="url(#clip0_163_15294)">
<g clip-path="url(#clip1_163_15294)">
<mask id="mask0_163_15294" style="mask-type:luminance" maskUnits="userSpaceOnUse" x="0" y="0" width="19" height="19">
<path d="M18.9697 0.750793H0.969727V18.7508H18.9697V0.750793Z" fill="white"/>
</mask>
<g mask="url(#mask0_163_15294)">
<path d="M14.4697 8.06329H13.3447C13.3442 7.61589 13.1663 7.18695 12.8499 6.87059C12.5335 6.55423 12.1046 6.37628 11.6572 6.37579V5.25079C12.4029 5.25164 13.1177 5.54823 13.645 6.07549C14.1723 6.60275 14.4689 7.31763 14.4697 8.06329Z" fill="white"/>
<path d="M16.7197 8.06329H15.5947C15.5935 7.01936 15.1783 6.01851 14.4402 5.28034C13.702 4.54217 12.7011 4.12695 11.6572 4.12579V3.00079C12.9994 3.00228 14.2862 3.53613 15.2353 4.48521C16.1844 5.43429 16.7182 6.72109 16.7197 8.06329Z" fill="white"/>
<path d="M12.4069 12.8346L13.6669 11.5746C13.8355 11.4059 14.0499 11.2904 14.2836 11.2424C14.5172 11.1944 14.7598 11.216 14.9813 11.3046L16.5159 11.9185C16.7421 12.009 16.9359 12.1652 17.0725 12.3669C17.209 12.5687 17.282 12.8068 17.2819 13.0504V15.8411C17.2823 16.007 17.2488 16.1712 17.1835 16.3236C17.1182 16.4761 17.0225 16.6137 16.9022 16.7278C16.7819 16.842 16.6396 16.9305 16.4839 16.9878C16.3283 17.045 16.1626 17.0699 15.997 17.0609C5.24092 16.3913 3.06872 7.28221 2.66512 3.79274C2.64559 3.62216 2.6624 3.44938 2.71445 3.28577C2.76649 3.12216 2.85259 2.97142 2.96708 2.84348C3.08157 2.71553 3.22185 2.61327 3.37869 2.54344C3.53554 2.4736 3.7054 2.43777 3.87708 2.4383H6.61803C6.86161 2.43829 7.09961 2.51128 7.30131 2.64784C7.50301 2.78439 7.65916 2.97826 7.74962 3.20442L8.36347 4.73892C8.45203 4.96039 8.47365 5.20298 8.42565 5.43662C8.37766 5.67026 8.26216 5.88469 8.09347 6.05331L6.83347 7.31331C6.83347 7.31331 7.53193 12.2252 12.4069 12.8346Z" fill="white"/>
</g>
</g>
</g>
<defs>
<clipPath id="clip0_163_15294">
<rect width="18" height="18" fill="white" transform="translate(0.969727 0.750793)"/>
</clipPath>
<clipPath id="clip1_163_15294">
<rect width="18" height="18" fill="white" transform="translate(0.969727 0.750793)"/>
</clipPath>
</defs>
</svg>
