<svg width="19" height="19" viewBox="0 0 19 19" fill="none" xmlns="http://www.w3.org/2000/svg">
<g clip-path="url(#clip0_776_4364)">
<g clip-path="url(#clip1_776_4364)">
<g clip-path="url(#clip2_776_4364)">
<mask id="mask0_776_4364" style="mask-type:luminance" maskUnits="userSpaceOnUse" x="0" y="0" width="19" height="19">
<path d="M18.9707 0.750732H0.970703V18.7507H18.9707V0.750732Z" fill="white"/>
</mask>
<g mask="url(#mask0_776_4364)">
<path d="M14.4707 8.06323H13.3457C13.3452 7.61583 13.1673 7.18689 12.8509 6.87053C12.5345 6.55417 12.1056 6.37622 11.6582 6.37573V5.25073C12.4039 5.25158 13.1187 5.54817 13.646 6.07543C14.1733 6.60269 14.4699 7.31757 14.4707 8.06323Z" fill="black"/>
<path d="M16.7207 8.06323H15.5957C15.5945 7.0193 15.1793 6.01845 14.4412 5.28028C13.703 4.54211 12.7021 4.12689 11.6582 4.12573V3.00073C13.0004 3.00222 14.2872 3.53607 15.2363 4.48515C16.1854 5.43423 16.7192 6.72103 16.7207 8.06323Z" fill="black"/>
<path d="M12.4079 12.8345L13.6679 11.5745C13.8365 11.4058 14.0509 11.2903 14.2846 11.2423C14.5182 11.1943 14.7608 11.2159 14.9823 11.3045L16.5169 11.9184C16.7431 12.0089 16.9369 12.1651 17.0735 12.3668C17.21 12.5686 17.283 12.8067 17.2829 13.0503V15.841C17.2833 16.0069 17.2498 16.1711 17.1845 16.3235C17.1192 16.476 17.0235 16.6136 16.9032 16.7277C16.7829 16.8419 16.6406 16.9304 16.4849 16.9877C16.3293 17.0449 16.1636 17.0698 15.998 17.0608C5.2419 16.3912 3.0697 7.28215 2.6661 3.79268C2.64657 3.6221 2.66338 3.44932 2.71543 3.28571C2.76747 3.1221 2.85357 2.97136 2.96806 2.84342C3.08255 2.71547 3.22283 2.61321 3.37967 2.54338C3.53652 2.47354 3.70638 2.43771 3.87806 2.43824H6.61901C6.86259 2.43823 7.10059 2.51122 7.30229 2.64778C7.50399 2.78433 7.66014 2.9782 7.7506 3.20436L8.36445 4.73886C8.45301 4.96033 8.47463 5.20292 8.42663 5.43656C8.37864 5.6702 8.26314 5.88463 8.09445 6.05325L6.83445 7.31325C6.83445 7.31325 7.53291 12.2251 12.4079 12.8345Z" fill="black"/>
</g>
</g>
</g>
</g>
<defs>
<clipPath id="clip0_776_4364">
<rect width="18" height="18" fill="white" transform="translate(0.970703 0.750732)"/>
</clipPath>
<clipPath id="clip1_776_4364">
<rect width="18" height="18" fill="white" transform="translate(0.970703 0.750732)"/>
</clipPath>
<clipPath id="clip2_776_4364">
<rect width="18" height="18" fill="white" transform="translate(0.970703 0.750732)"/>
</clipPath>
</defs>
</svg>
