<svg width="138" height="20" viewBox="0 0 138 20" fill="none" xmlns="http://www.w3.org/2000/svg">
<g clip-path="url(#clip0_163_15579)">
<g clip-path="url(#clip1_163_15579)">
<g clip-path="url(#clip2_163_15579)">
<mask id="mask0_163_15579" style="mask-type:luminance" maskUnits="userSpaceOnUse" x="0" y="0" width="138" height="20">
<path d="M137.6 0H0.600098V20H137.6V0Z" fill="white"/>
</mask>
<g mask="url(#mask0_163_15579)">
<path d="M10.5751 19.2992C11.9584 19.2992 13.2418 19.0576 14.4251 18.5742C15.6084 18.0909 16.6418 17.4159 17.5251 16.5492C18.4084 15.6826 19.0918 14.6659 19.5751 13.4992C20.0751 12.3159 20.3251 11.0409 20.3251 9.67422C20.3251 8.29089 20.0751 7.01589 19.5751 5.84922C19.0918 4.68255 18.4084 3.67422 17.5251 2.82422C16.6418 1.95755 15.6084 1.28255 14.4251 0.799218C13.2418 0.315885 11.9584 0.0742188 10.5751 0.0742188C9.19177 0.0742188 7.90843 0.315885 6.7251 0.799218C5.54177 1.28255 4.50843 1.95755 3.6251 2.82422C2.75843 3.67422 2.0751 4.68255 1.5751 5.84922C1.09176 7.01589 0.850098 8.29089 0.850098 9.67422C0.850098 11.0409 1.09176 12.3159 1.5751 13.4992C2.0751 14.6659 2.76677 15.6826 3.6501 16.5492C4.53343 17.4159 5.56677 18.0909 6.7501 18.5742C7.93343 19.0576 9.20843 19.2992 10.5751 19.2992ZM10.5751 16.1992C9.3751 16.1992 8.29177 15.9159 7.3251 15.3492C6.3751 14.7826 5.6251 14.0076 5.0751 13.0242C4.5251 12.0409 4.2501 10.9242 4.2501 9.67422C4.2501 8.42422 4.5251 7.31589 5.0751 6.34922C5.6251 5.36589 6.3751 4.59089 7.3251 4.02422C8.29177 3.45755 9.3751 3.17422 10.5751 3.17422C11.7918 3.17422 12.8751 3.45755 13.8251 4.02422C14.7751 4.59089 15.5251 5.36589 16.0751 6.34922C16.6251 7.31589 16.9001 8.42422 16.9001 9.67422C16.9001 10.9242 16.6251 12.0409 16.0751 13.0242C15.5251 14.0076 14.7751 14.7826 13.8251 15.3492C12.8751 15.9159 11.7918 16.1992 10.5751 16.1992Z" fill="#153443"/>
<path d="M23.3481 18.998H31.1981C33.2815 18.998 34.9065 18.498 36.0731 17.498C37.2565 16.4814 37.8481 15.0814 37.8481 13.298C37.8481 12.448 37.6815 11.648 37.3481 10.898C37.0148 10.148 36.4315 9.50638 35.5981 8.97305C36.1148 8.50638 36.4898 7.98972 36.7231 7.42305C36.9731 6.85638 37.0981 6.25638 37.0981 5.62305C37.0981 3.98972 36.5731 2.70638 35.5231 1.77305C34.4731 0.839714 33.0315 0.373047 31.1981 0.373047H23.3481V18.998ZM26.7481 7.59805V3.27305H31.3731C32.0731 3.27305 32.6315 3.46472 33.0481 3.84805C33.4648 4.23138 33.6731 4.74805 33.6731 5.39805C33.6731 6.04805 33.4648 6.58138 33.0481 6.99805C32.6315 7.39805 32.0731 7.59805 31.3731 7.59805H26.7481ZM26.7481 15.998V10.573H31.5481C32.4315 10.573 33.1315 10.823 33.6481 11.323C34.1815 11.8064 34.4481 12.4647 34.4481 13.298C34.4481 14.1147 34.1815 14.773 33.6481 15.273C33.1315 15.7564 32.4315 15.998 31.5481 15.998H26.7481Z" fill="#153443"/>
<path d="M47.2841 19.2992C48.5674 19.2992 49.6924 19.0659 50.6591 18.5992C51.6258 18.1326 52.3841 17.4909 52.9341 16.6742C53.4841 15.8576 53.7591 14.9159 53.7591 13.8492C53.7591 11.3659 52.2758 9.64922 49.3091 8.69922L45.8841 7.62422C45.2174 7.40755 44.7091 7.10755 44.3591 6.72422C44.0258 6.32422 43.8591 5.86589 43.8591 5.34922C43.8591 4.66589 44.1174 4.11589 44.6341 3.69922C45.1674 3.26589 45.8674 3.04922 46.7341 3.04922C47.7008 3.04922 48.5508 3.30755 49.2841 3.82422C50.0174 4.32422 50.5674 5.04089 50.9341 5.97422L53.7341 4.72422C53.2341 3.32422 52.3591 2.19922 51.1091 1.34922C49.8758 0.499219 48.4174 0.0742188 46.7341 0.0742188C45.5174 0.0742188 44.4341 0.307552 43.4841 0.774219C42.5508 1.22422 41.8174 1.85755 41.2841 2.67422C40.7674 3.49089 40.5091 4.43255 40.5091 5.49922C40.5091 6.71589 40.8758 7.77422 41.6091 8.67422C42.3424 9.55755 43.4341 10.2326 44.8841 10.6992L48.4591 11.8492C49.1091 12.0659 49.5924 12.3492 49.9091 12.6992C50.2424 13.0492 50.4091 13.4992 50.4091 14.0492C50.4091 14.7326 50.1341 15.2826 49.5841 15.6992C49.0508 16.1159 48.3424 16.3242 47.4591 16.3242C46.3924 16.3242 45.4341 16.0242 44.5841 15.4242C43.7341 14.8076 43.0841 13.9659 42.6341 12.8992L39.8091 14.1242C40.1424 15.1576 40.6674 16.0659 41.3841 16.8492C42.1174 17.6159 42.9841 18.2159 43.9841 18.6492C45.0008 19.0826 46.1008 19.2992 47.2841 19.2992Z" fill="#153443"/>
<path d="M56.8208 18.998H60.2208V0.373047H56.8208V18.998Z" fill="#153443"/>
<path d="M63.8032 18.998H69.8782C71.8449 18.998 73.5532 18.598 75.0032 17.798C76.4699 16.998 77.6032 15.898 78.4032 14.498C79.2032 13.098 79.6032 11.4897 79.6032 9.67305C79.6032 7.83972 79.2032 6.23138 78.4032 4.84805C77.6032 3.44805 76.4782 2.35638 75.0282 1.57305C73.5782 0.773047 71.8616 0.373047 69.8782 0.373047H63.8032V18.998ZM67.2032 15.998V3.37305H69.9532C71.2199 3.37305 72.3116 3.63138 73.2282 4.14805C74.1616 4.66472 74.8866 5.39805 75.4032 6.34805C75.9199 7.28138 76.1782 8.38972 76.1782 9.67305C76.1782 10.9564 75.9199 12.073 75.4032 13.023C74.9032 13.973 74.1866 14.7064 73.2532 15.223C72.3199 15.7397 71.2199 15.998 69.9532 15.998H67.2032Z" fill="#153443"/>
<path d="M82.3091 18.998H85.7091V0.373047H82.3091V18.998Z" fill="#153443"/>
<path d="M87.7661 18.998H91.4411L92.7911 14.998H99.9911L101.316 18.998H105.016L98.5911 0.373047H94.1911L87.7661 18.998ZM93.7661 11.998L96.3911 4.14805L99.0161 11.998H93.7661Z" fill="#153443"/>
<path d="M107.088 18.998H110.488V6.82305L119.338 18.998H122.013V0.373047H118.613V12.323L109.738 0.373047H107.088V18.998Z" fill="#153443"/>
<path d="M137.461 4.86301C137.554 4.90868 137.6 4.97717 137.6 5.06849C137.6 5.11416 137.554 5.15982 137.461 5.20548C135.98 5.79909 134.984 6.34703 134.475 6.84932C133.966 7.3516 133.41 8.35616 132.808 9.86301C132.716 9.95434 132.646 10 132.6 10C132.461 10 132.392 9.95434 132.392 9.86301C131.836 8.35616 131.281 7.32877 130.725 6.78082C130.169 6.18722 129.174 5.61644 127.739 5.06849C127.646 5.02283 127.6 4.97717 127.6 4.93151C127.6 4.84018 127.646 4.77169 127.739 4.72603C129.22 4.13242 130.216 3.58448 130.725 3.08219C131.281 2.53425 131.836 1.55251 132.392 0.136987C132.438 0.0456622 132.507 0 132.6 0C132.693 0 132.762 0.0456622 132.808 0.136987C133.41 1.64384 133.966 2.67123 134.475 3.21918C135.031 3.76712 136.026 4.31507 137.461 4.86301Z" fill="#153443"/>
</g>
</g>
</g>
</g>
<defs>
<clipPath id="clip0_163_15579">
<rect width="137" height="20" fill="white" transform="translate(0.600098)"/>
</clipPath>
<clipPath id="clip1_163_15579">
<rect width="137" height="20" fill="white" transform="translate(0.600098)"/>
</clipPath>
<clipPath id="clip2_163_15579">
<rect width="137" height="20" fill="white" transform="translate(0.600098)"/>
</clipPath>
</defs>
</svg>
