<svg width="137" height="22" viewBox="0 0 137 22" fill="none" xmlns="http://www.w3.org/2000/svg">
<g clip-path="url(#clip0_163_15550)">
<g clip-path="url(#clip1_163_15550)">
<g clip-path="url(#clip2_163_15550)">
<mask id="mask0_163_15550" style="mask-type:luminance" maskUnits="userSpaceOnUse" x="0" y="0" width="137" height="22">
<path d="M136.04 0H0.0400391V22H136.04V0Z" fill="white"/>
</mask>
<g mask="url(#mask0_163_15550)">
<path d="M22.7039 20.9995V0.351562H18.8179L11.7419 17.3745L4.63698 0.351562H0.750977V20.9995H3.15798V2.70056L10.6399 20.9995H12.8149L20.2969 2.70056V20.9995H22.7039Z" fill="#153443"/>
<path d="M34.2469 21.2895C40.1049 21.2895 42.6279 18.5345 42.6279 13.1985V0.351562H40.1339V12.9955C40.1339 17.5775 38.3359 19.2305 34.2469 19.2305C30.1579 19.2305 28.3309 17.5775 28.3309 12.9955V0.351562H25.8369V13.1985C25.8369 18.5345 28.3599 21.2895 34.2469 21.2895Z" fill="#153443"/>
<path d="M53.0011 21.2905C58.4531 21.2905 61.0051 18.8835 61.0051 14.9395C61.0051 11.8075 58.9461 10.2705 54.9731 9.6905L51.8411 9.2265C48.7961 8.7625 48.0131 7.8055 48.0131 6.0945C48.0131 3.5715 49.5501 1.9765 52.9431 1.9765C56.4231 1.9765 57.8441 3.4845 58.1921 6.5295H60.4831C60.4831 2.4985 58.0761 0.0625 53.0011 0.0625C47.9261 0.0625 45.5191 2.5855 45.5191 6.2395C45.5191 9.1395 46.9401 10.6765 51.1161 11.3145L54.2481 11.7785C57.6411 12.2715 58.5111 13.4605 58.5111 15.0555C58.5111 17.7235 56.9741 19.3765 53.0591 19.3765C49.0571 19.3765 47.7231 17.7815 47.3461 14.5335H44.9971C44.9971 18.9415 47.5491 21.2905 53.0011 21.2905Z" fill="#153443"/>
<path d="M77.8597 20.9995V18.9405H66.1727V11.4585H76.9317V9.48656H66.1727V2.41056H77.8597V0.351562H63.6787V20.9995H77.8597Z" fill="#153443"/>
<path d="M97.7266 20.4785L97.6396 21.0005H91.8106L91.8976 20.4785H92.2746C92.6612 20.4785 93.0576 20.4012 93.4636 20.2465C93.8889 20.0918 94.0822 19.8985 94.0436 19.6665L93.2896 14.5045H85.1116L82.3856 19.4055C82.3276 19.4828 82.2986 19.5698 82.2986 19.6665C82.2986 19.8985 82.4532 20.0918 82.7626 20.2465C83.0719 20.4012 83.3909 20.4785 83.7196 20.4785H84.1256L84.0676 21.0005H78.5576L78.6446 20.4785H79.0796C79.4469 20.4785 79.8529 20.3818 80.2976 20.1885C80.7422 19.9952 81.0419 19.7632 81.1966 19.4925L91.5496 1.04845L92.7386 0.439453L95.6676 19.4925C95.7062 19.7632 95.8899 19.9952 96.2186 20.1885C96.5666 20.3818 96.9242 20.4785 97.2916 20.4785H97.7266ZM93.1736 13.6345L91.6076 2.90445L85.6046 13.6345H93.1736Z" fill="#153443"/>
<path d="M115.793 6.58817C115.136 9.77817 113.492 11.6825 110.863 12.3012C111.269 12.5912 111.53 13.0262 111.646 13.6062C111.781 14.1862 111.878 14.9789 111.936 15.9842C112.033 17.3762 112.255 18.4782 112.603 19.2902C112.97 20.0829 113.647 20.4792 114.633 20.4792L114.546 21.0012H113.067C112.313 21.0012 111.704 20.7209 111.24 20.1602C110.795 19.5995 110.544 18.8745 110.486 17.9852L110.428 16.8252C110.389 15.6845 110.322 14.7759 110.225 14.0992C110.128 13.4225 109.916 12.8812 109.587 12.4752C109.432 12.4945 109.191 12.5042 108.862 12.5042H104.193L102.772 19.4932C102.753 19.5512 102.743 19.6285 102.743 19.7252C102.743 20.2279 103.236 20.4792 104.222 20.4792H105.005L104.918 21.0012H98.5381L98.5961 20.4792H99.3791C99.9398 20.4792 100.375 20.4019 100.684 20.2472C101.013 20.0925 101.216 19.8412 101.293 19.4932L104.802 2.23817C104.86 1.89017 104.763 1.63884 104.512 1.48417C104.28 1.3295 103.884 1.25217 103.323 1.25217H102.54L102.656 0.701172H111.24C114.391 0.701172 115.967 2.04484 115.967 4.73217C115.967 5.42817 115.909 6.04684 115.793 6.58817ZM108.862 11.6342C110.389 11.6342 111.607 11.1895 112.516 10.3002C113.425 9.41084 114.034 8.1735 114.343 6.58817C114.478 6.0275 114.546 5.46684 114.546 4.90617C114.546 2.68284 113.338 1.57117 110.921 1.57117H106.426L104.367 11.6342H108.862Z" fill="#153443"/>
<path d="M120.735 20.4792H121.518C122.079 20.4792 122.514 20.4019 122.823 20.2472C123.132 20.0925 123.326 19.8412 123.403 19.4932L127.057 1.57117H123.055C122.32 1.57117 121.731 1.98684 121.286 2.81817C120.841 3.63017 120.503 4.53884 120.271 5.54417H119.778L120.764 0.701172H135.177L134.22 5.54417H133.727C133.843 4.9255 133.901 4.33584 133.901 3.77517C133.901 3.13717 133.795 2.61517 133.582 2.20917C133.389 1.78384 133.05 1.57117 132.567 1.57117H128.565L124.911 19.4932C124.892 19.5512 124.882 19.6285 124.882 19.7252C124.882 19.9959 124.998 20.1892 125.23 20.3052C125.481 20.4212 125.858 20.4792 126.361 20.4792H127.144L127.057 21.0012H120.648L120.735 20.4792Z" fill="#153443"/>
</g>
</g>
</g>
</g>
<defs>
<clipPath id="clip0_163_15550">
<rect width="136" height="22" fill="white" transform="translate(0.0400391)"/>
</clipPath>
<clipPath id="clip1_163_15550">
<rect width="136" height="22" fill="white" transform="translate(0.0400391)"/>
</clipPath>
<clipPath id="clip2_163_15550">
<rect width="136" height="22" fill="white" transform="translate(0.0400391)"/>
</clipPath>
</defs>
</svg>
