<svg width="146" height="34" viewBox="0 0 146 34" fill="none" xmlns="http://www.w3.org/2000/svg">
<g clip-path="url(#clip0_163_15564)">
<g clip-path="url(#clip1_163_15564)">
<g clip-path="url(#clip2_163_15564)">
<mask id="mask0_163_15564" style="mask-type:luminance" maskUnits="userSpaceOnUse" x="0" y="0" width="146" height="34">
<path d="M145.82 0H0.820068V34H145.82V0Z" fill="white"/>
</mask>
<g mask="url(#mask0_163_15564)">
<path d="M53.2125 10.632C52.0912 10.0113 50.8293 9.68555 49.5462 9.68555C48.2631 9.68555 47.0012 10.0113 45.8799 10.632C44.7701 11.2469 43.8548 12.1578 43.2369 13.2622C42.5904 14.4561 42.263 15.7953 42.2861 17.1513C42.2657 18.5199 42.5927 19.8714 43.2369 21.0806C43.8637 22.1824 44.7765 23.0964 45.8799 23.7268C47.0063 24.3318 48.2662 24.6486 49.5462 24.6486C50.8262 24.6486 52.0861 24.3318 53.2125 23.7268C54.3084 23.0975 55.2111 22.1826 55.8232 21.0806C56.487 19.8779 56.8231 18.5233 56.7982 17.1513C56.8213 15.7923 56.4851 14.4511 55.8232 13.2622C55.2151 12.1613 54.3111 11.2506 53.2125 10.632ZM53.4622 15.7881V18.5146C53.5281 19.8571 53.1764 21.1871 52.455 22.3235C52.1344 22.7887 51.6975 23.1627 51.1875 23.4088C50.6774 23.6549 50.1117 23.7645 49.5462 23.7268C48.9762 23.763 48.4065 23.653 47.8915 23.4073C47.3766 23.1616 46.9336 22.7884 46.6051 22.3235C45.8993 21.1814 45.5567 19.8538 45.622 18.5146V15.7881C45.5551 14.4589 45.8981 13.141 46.6051 12.0113C46.9308 11.5419 47.3725 11.1641 47.8877 10.9141C48.4028 10.664 48.974 10.5503 49.5462 10.5839C50.1117 10.5463 50.6774 10.6559 51.1875 10.9019C51.6975 11.148 52.1344 11.522 52.455 11.9872C53.1822 13.1181 53.5344 14.4475 53.4622 15.7881Z" fill="#153443"/>
<path d="M68.2067 14.0245L68.1341 14.0726V14.1528C68.1409 14.5213 68.2547 14.88 68.4618 15.1855C68.669 15.4911 68.9606 15.7304 69.3015 15.8746C69.6423 16.0187 70.0179 16.0616 70.3827 15.998C70.7475 15.9343 71.086 15.7669 71.3573 15.516C71.7259 15.1052 71.9169 14.5665 71.8891 14.0165C71.8923 13.1949 71.6073 12.398 71.0833 11.7632C70.5326 11.0818 69.8095 10.5587 68.9883 10.2476C68.0678 9.86326 67.0775 9.67217 66.0794 9.68628C64.8381 9.68553 63.6164 9.9943 62.5259 10.5844C61.3981 11.174 60.4556 12.0619 59.8024 13.1504C59.1076 14.3713 58.7594 15.7572 58.7952 17.1598C58.7934 18.5305 59.1399 19.8794 59.8024 21.0811C60.4292 22.1829 61.342 23.0969 62.4453 23.7273C63.5669 24.3446 64.83 24.6623 66.1116 24.6495C67.4635 24.6777 68.7838 24.2416 69.8504 23.4146C70.8988 22.5928 71.6025 21.4123 71.8246 20.1028V19.9103H70.906V20.0386C70.7104 21.1114 70.1146 22.0709 69.2381 22.7249C68.335 23.398 67.2316 23.7508 66.1036 23.7273C65.5335 23.7643 64.9635 23.6546 64.4484 23.4088C63.9333 23.163 63.4905 22.7894 63.1625 22.324C62.4568 21.1819 62.1141 19.8542 62.1794 18.515V15.7886C62.0965 14.4393 62.4494 13.099 63.1866 11.9636C63.5205 11.5177 63.9582 11.1592 64.4621 10.9189C64.966 10.6787 65.521 10.5639 66.0794 10.5844C66.8105 10.5476 67.5315 10.766 68.118 11.2018C68.358 11.3728 68.5525 11.5995 68.6845 11.8622C68.8165 12.1249 68.8821 12.4157 68.8755 12.7094C68.8844 12.9683 68.8348 13.2258 68.7304 13.4632C68.6079 13.6924 68.4274 13.8859 68.2067 14.0245Z" fill="#153443"/>
<path d="M81.6885 22.8528L81.4146 23.0131C81.2261 23.1207 81.0261 23.2068 80.8183 23.2698C80.5599 23.3616 80.2867 23.4051 80.0125 23.3981C78.7233 23.3981 78.0947 22.508 78.0947 20.6716V11.049L81.6563 10.7764V9.93439H78.127V6.94336L75.065 7.70515V9.93439H73.115V10.7764L75.065 11.049V20.7278C75.0181 21.2772 75.0951 21.8301 75.2902 22.3462C75.4854 22.8622 75.7938 23.3285 76.1931 23.7108C77.0515 24.3682 78.1167 24.7007 79.1987 24.649C80.3258 24.6682 81.4189 24.2645 82.2606 23.5183L82.3654 23.4141L81.7933 22.7245L81.6885 22.8528Z" fill="#153443"/>
<path d="M97.1664 22.4435C97.1817 22.717 97.0989 22.987 96.9327 23.2053C96.8532 23.2885 96.7567 23.3538 96.6496 23.3967C96.5426 23.4396 96.4275 23.4591 96.3123 23.4539C96.1955 23.4635 96.0781 23.4477 95.9682 23.4075C95.8583 23.3673 95.7584 23.3038 95.6757 23.2213C95.5221 22.9826 95.4461 22.7026 95.4581 22.4195V14.593C95.4581 11.3374 93.5565 9.68553 89.8177 9.68553C88.4103 9.64103 87.0174 9.97926 85.7888 10.6638C85.2914 10.9138 84.8727 11.2952 84.5785 11.7662C84.2843 12.2371 84.126 12.7796 84.1208 13.3341C84.1012 13.5947 84.137 13.8565 84.2258 14.1024C84.3147 14.3484 84.4546 14.5729 84.6365 14.7614C85.0105 15.0783 85.4916 15.2417 85.9822 15.2185C86.4833 15.2104 86.9619 15.0097 87.3178 14.6585C87.6738 14.3073 87.8794 13.8327 87.8919 13.3341V13.2218L87.7791 13.1817C87.5781 13.1445 87.399 13.0326 87.2778 12.8689C87.1566 12.7051 87.1025 12.5016 87.1264 12.2996C87.1158 12.0668 87.1623 11.8348 87.262 11.6238C87.3617 11.4128 87.5115 11.2292 87.6985 11.0888C88.2299 10.7272 88.8697 10.5574 89.5115 10.6077C90.1 10.581 90.6869 10.688 91.2278 10.9204C91.4357 11.0203 91.6209 11.1614 91.7719 11.3352C91.923 11.509 92.0367 11.7116 92.1061 11.9308C92.3463 12.6099 92.453 13.3286 92.4203 14.0478V15.9803H90.7443C88.9848 15.9471 87.2425 16.3291 85.6598 17.0949C84.9464 17.4243 84.3493 17.9602 83.9468 18.6326C83.5443 19.305 83.355 20.0826 83.4037 20.8638C83.3707 21.3967 83.4603 21.93 83.6655 22.4233C83.8708 22.9166 84.1863 23.3568 84.5882 23.7105C85.4414 24.36 86.4962 24.6919 87.5695 24.6487C88.6444 24.6629 89.7029 24.3857 90.6315 23.8468C91.3818 23.4227 92.0112 22.8156 92.4606 22.0827C92.5202 22.7815 92.839 23.4333 93.355 23.911C93.9902 24.4142 94.7835 24.6783 95.5951 24.6567C96.2491 24.6931 96.8932 24.4843 97.4001 24.0713C97.6254 23.8704 97.8036 23.6225 97.922 23.3454C98.0404 23.0682 98.096 22.7685 98.085 22.4676V22.3072H97.1906L97.1664 22.4435ZM92.3962 19.5647C92.347 20.2526 92.1314 20.9184 91.7677 21.5053C91.4405 22.0049 90.9986 22.42 90.4784 22.7162C89.9542 23.014 89.355 23.1557 88.7522 23.1245C88.1494 23.0932 87.5683 22.8902 87.078 22.5397C86.8314 22.2713 86.645 21.9537 86.531 21.6081C86.4171 21.2625 86.3783 20.8967 86.4173 20.535C86.3883 20.043 86.4661 19.5506 86.6455 19.0912C86.8249 18.6318 87.1016 18.2162 87.4567 17.8728C88.3875 17.1607 89.5494 16.8152 90.7201 16.9025H92.3962V19.5647Z" fill="#153443"/>
<path d="M111.058 7.1519C110.832 7.14815 110.607 7.1919 110.399 7.28033C110.191 7.36875 110.003 7.49986 109.849 7.6651C109.696 7.81458 109.575 7.99301 109.492 8.18992C109.409 8.38683 109.366 8.59827 109.366 8.81181V8.98019H109.527C109.615 8.97982 109.701 8.99744 109.782 9.03194C109.862 9.06643 109.935 9.11706 109.995 9.18066C110.063 9.25129 110.116 9.33578 110.15 9.42845C110.183 9.52112 110.196 9.61984 110.188 9.71794C110.185 9.85547 110.155 9.99102 110.098 10.1164C110.041 10.2418 109.959 10.3545 109.858 10.4476C109.571 10.6759 109.229 10.8252 108.866 10.8806C107.972 10.0788 106.554 9.69387 104.652 9.69387C103.248 9.64627 101.872 10.0951 100.768 10.9608C100.244 11.3794 99.8248 11.9143 99.5449 12.5227C99.2651 13.1312 99.1322 13.7964 99.1568 14.4651C99.1568 16.4137 99.8739 17.7769 101.276 18.5226C100.836 18.717 100.453 19.0207 100.164 19.4047C99.7771 19.9296 99.5734 20.5661 99.5839 21.217C99.5563 21.6635 99.6345 22.1102 99.8122 22.5211C99.99 22.932 100.262 23.2956 100.607 23.5825C101.497 24.164 102.55 24.4452 103.613 24.3844H106.949C107.82 24.3107 108.696 24.4685 109.487 24.8415C109.72 25.0196 109.904 25.2533 110.022 25.521C110.141 25.7887 110.189 26.0818 110.164 26.3731C110.149 27.0697 109.918 27.7448 109.503 28.3056C109.014 28.9739 108.355 29.4999 107.593 29.8292C106.72 30.2519 105.76 30.4634 104.789 30.4467C104.329 30.4934 103.863 30.4463 103.421 30.3085C102.979 30.1706 102.57 29.9448 102.219 29.6448C101.706 29.1309 101.416 28.4367 101.413 27.7122C101.407 26.9599 101.696 26.2348 102.219 25.6915L102.436 25.467L102.13 25.4269C101.786 25.3673 101.439 25.3298 101.091 25.3146C100.715 25.2962 100.339 25.3535 99.9861 25.483C99.633 25.6125 99.3098 25.8116 99.0359 26.0684C98.788 26.2889 98.5885 26.558 98.4499 26.8588C98.3112 27.1596 98.2364 27.4856 98.2302 27.8165C98.2297 28.3449 98.3714 28.8639 98.6407 29.3193C98.9099 29.7748 99.2968 30.1502 99.7611 30.4066C101.199 31.1367 102.808 31.4664 104.419 31.3608C105.669 31.3836 106.907 31.1086 108.028 30.5589C108.969 30.1097 109.762 29.404 110.315 28.5239C110.869 27.6438 111.16 26.6255 111.155 25.5872C111.211 25.0012 111.137 24.41 110.938 23.8556C110.739 23.3013 110.42 22.7974 110.003 22.3797C109.016 21.6837 107.816 21.3519 106.61 21.4415H103.548C102.928 21.4842 102.307 21.3798 101.735 21.1368C101.581 21.0398 101.457 20.9005 101.38 20.7355C101.303 20.5705 101.275 20.3869 101.3 20.2066C101.3 19.4689 101.824 19.0759 102.912 19.0038C103.493 19.1136 104.084 19.1673 104.676 19.1641C106.095 19.2171 107.487 18.7714 108.609 17.9052C109.133 17.492 109.553 16.9616 109.833 16.3569C110.113 15.7522 110.245 15.0903 110.22 14.425C110.261 13.4844 110.053 12.5496 109.616 11.7146C110.486 11.6311 111.31 11.2841 111.977 10.7203C112.247 10.4743 112.462 10.1743 112.608 9.83989C112.754 9.50549 112.827 9.14422 112.823 8.77972C112.831 8.55487 112.791 8.33087 112.707 8.12225C112.622 7.91364 112.494 7.7251 112.331 7.56887C112.158 7.4187 111.955 7.30449 111.737 7.23289C111.518 7.1613 111.288 7.13377 111.058 7.1519ZM106.602 17.5764C106.374 17.8694 106.077 18.1013 105.736 18.2511C105.396 18.4009 105.023 18.4639 104.652 18.4344C104.285 18.462 103.916 18.398 103.58 18.2482C103.244 18.0983 102.95 17.8675 102.726 17.5764C102.268 16.8452 102.049 15.9909 102.098 15.1306V13.7915C102.098 11.5703 102.904 10.4877 104.652 10.4877C105.018 10.4538 105.387 10.5091 105.727 10.6488C106.067 10.7885 106.367 11.0085 106.602 11.2896C107.098 12.0149 107.336 12.8841 107.279 13.7594V15.0906C107.329 15.9626 107.091 16.827 106.602 17.5523V17.5764Z" fill="#153443"/>
<path d="M124.168 10.6319C123.045 10.0112 121.782 9.68555 120.498 9.68555C119.213 9.68555 117.95 10.0112 116.827 10.6319C115.723 11.252 114.812 12.1618 114.192 13.2621C113.542 14.4546 113.214 15.7948 113.241 17.1513C113.216 18.5203 113.543 19.873 114.192 21.0805C114.818 22.1804 115.728 23.0939 116.827 23.7267C117.955 24.3317 119.216 24.6485 120.498 24.6485C121.779 24.6485 123.04 24.3317 124.168 23.7267C125.263 23.0992 126.164 22.1837 126.771 21.0805C127.437 19.8786 127.776 18.5239 127.754 17.1513C127.778 15.7911 127.439 14.4489 126.771 13.2621C126.17 12.1584 125.268 11.2466 124.168 10.6319ZM124.418 15.7881V18.5145C124.485 19.8583 124.13 21.1897 123.402 22.3234C123.082 22.7886 122.645 23.1626 122.135 23.4087C121.625 23.6548 121.059 23.7644 120.493 23.7267C119.925 23.7623 119.356 23.6519 118.843 23.4062C118.329 23.1605 117.888 22.7877 117.56 22.3234C116.855 21.1813 116.512 19.8537 116.577 18.5145V15.7881C116.511 14.4588 116.854 13.141 117.56 12.0112C117.885 11.5425 118.325 11.165 118.839 10.9149C119.353 10.6649 119.923 10.5509 120.493 10.5838C121.059 10.5462 121.625 10.6558 122.135 10.9018C122.645 11.1479 123.082 11.5219 123.402 11.9871C124.136 13.1153 124.492 14.4461 124.418 15.7881Z" fill="#153443"/>
<path d="M143.902 23.2533V13.7429C143.941 13.1794 143.853 12.6144 143.646 12.0888C143.438 11.5631 143.116 11.09 142.702 10.7037C141.789 9.98198 140.642 9.61948 139.478 9.68536C138.403 9.69121 137.352 10.0028 136.449 10.5834C135.622 11.0993 134.898 11.7626 134.313 12.54V9.93394H129.334V10.7759L131.251 11.0485V23.2533L129.334 23.5259V24.3759H135.957V23.5339L134.346 23.2613V14.0396C134.898 13.2217 135.575 12.4941 136.352 11.8825C137.005 11.327 137.83 11.0126 138.689 10.9924C139.003 10.965 139.319 11.0167 139.608 11.1429C139.896 11.269 140.148 11.4655 140.341 11.7141C140.74 12.3337 140.929 13.0645 140.88 13.799V23.2613L139.269 23.5339V24.3759H145.892V23.5259L143.902 23.2533Z" fill="#153443"/>
<path d="M32.149 12.3089C31.1999 11.8533 30.1567 11.6254 29.1031 11.6433C28.7637 11.644 28.4246 11.6654 28.0878 11.7075C28.3323 10.6851 28.1635 9.60808 27.618 8.70825C27.0725 7.80841 26.1937 7.1577 25.1709 6.89618C24.5193 6.7427 23.8385 6.76206 23.1968 6.95231C23.2458 6.59086 23.2701 6.22649 23.2693 5.86175C23.2871 4.8107 23.0581 3.77002 22.6005 2.8226C22.2696 2.18976 21.812 1.63102 21.256 1.18075C20.6999 0.730491 20.0572 0.398234 19.3673 0.204433C18.6774 0.0106314 17.9549 -0.040613 17.2444 0.0538535C16.5338 0.14832 15.8502 0.386499 15.2357 0.75373C14.4223 1.25092 13.7682 1.9686 13.3501 2.8226C12.8925 3.77002 12.6635 4.8107 12.6813 5.86175C12.678 6.20498 12.6995 6.54801 12.7458 6.88816C12.0609 6.66821 11.3277 6.64405 10.6296 6.81842C9.93159 6.9928 9.29678 7.3587 8.79745 7.87448C8.27585 8.38849 7.90528 9.03455 7.72576 9.74288C7.57392 10.3974 7.59614 11.0801 7.79022 11.7235C7.42971 11.6747 7.06626 11.6506 6.70242 11.6514C5.64627 11.6336 4.60054 11.8615 3.64852 12.3169C3.01261 12.6462 2.45116 13.1016 1.99871 13.6549C1.54625 14.2083 1.21238 14.8479 1.01764 15.5345C0.822901 16.2211 0.771408 16.94 0.866333 17.6471C0.961257 18.3543 1.20059 19.0346 1.56961 19.6462C2.06922 20.4556 2.79037 21.1065 3.64852 21.5226C4.60054 21.978 5.64627 22.2059 6.70242 22.1882C7.08264 22.1902 7.46246 22.1634 7.83857 22.108C7.59406 22.7973 7.55447 23.5421 7.72454 24.2532C7.89461 24.9644 8.26713 25.6116 8.79745 26.1174C9.30295 26.6399 9.94469 27.012 10.6507 27.1919C11.3393 27.352 12.059 27.3187 12.7297 27.0957C12.6874 27.4443 12.6659 27.7951 12.6652 28.1462C12.6463 29.1922 12.8754 30.2279 13.334 31.1693C13.7496 32.0292 14.4039 32.7527 15.2195 33.2542C15.8309 33.6366 16.5162 33.8869 17.231 33.9886C17.9458 34.0903 18.6742 34.0413 19.3687 33.8447C20.0633 33.6481 20.7085 33.3083 21.2625 32.8473C21.8165 32.3864 22.2668 31.8147 22.5844 31.1693C23.0429 30.2279 23.2721 29.1922 23.2532 28.1462C23.2556 27.7758 23.2286 27.4058 23.1726 27.0396C23.8167 27.2309 24.4996 27.253 25.1548 27.1037C25.8666 26.9251 26.5158 26.5563 27.0323 26.0372C27.5596 25.5276 27.9312 24.8798 28.104 24.1688C28.2635 23.4893 28.2329 22.7793 28.0153 22.116C28.3683 22.1578 28.7235 22.1792 29.0789 22.1801C30.1325 22.1981 31.1757 21.9702 32.1248 21.5146C32.9869 21.1013 33.7114 20.4499 34.2118 19.6382C34.5951 19.0299 34.8459 18.3484 34.948 17.6377C35.0502 16.927 35.0013 16.2028 34.8046 15.5121C34.6079 14.8213 34.2678 14.1793 33.8062 13.6276C33.3446 13.0758 32.7718 12.6266 32.1248 12.3089H32.149ZM12.359 18.6599H12.3026C12.6612 17.579 12.678 16.4147 12.351 15.324C12.6517 15.3241 12.9516 15.2919 13.2454 15.2278C13.9571 15.0491 14.6063 14.6803 15.1228 14.1613C15.6502 13.6517 16.0218 13.0039 16.1945 12.2929C16.2582 12.0301 16.2933 11.7612 16.2993 11.491C17.3508 11.803 18.4709 11.803 19.5224 11.491C19.5214 11.7934 19.5566 12.0949 19.6272 12.3891C19.8132 13.0946 20.1843 13.7381 20.7025 14.2538C21.2207 14.7696 21.8674 15.1389 22.5763 15.324C22.8404 15.3864 23.1107 15.4187 23.3821 15.4202C23.2487 15.909 23.1809 16.4133 23.1806 16.9198C23.1884 17.4934 23.289 18.062 23.4788 18.6037C23.1855 18.6028 22.8932 18.6378 22.6085 18.708C21.8981 18.89 21.2498 19.2583 20.7311 19.7745C20.2124 20.2907 19.8423 20.9359 19.6594 21.6429C19.587 21.9393 19.5545 22.244 19.5627 22.549C18.4954 22.2321 17.3585 22.2321 16.2912 22.549C16.2842 22.263 16.2491 21.9783 16.1865 21.699C16.0036 20.992 15.6335 20.3468 15.1148 19.8306C14.596 19.3144 13.9477 18.9461 13.2373 18.7641C12.9492 18.6978 12.6547 18.6629 12.359 18.6599ZM1.94832 15.2518C2.3051 14.7277 2.80976 14.3203 3.39873 14.0811C4.11904 13.7763 4.89661 13.6287 5.67908 13.6481H7.74993C8.18347 13.6529 8.6154 13.7013 9.03918 13.7924L9.11976 13.8726C9.67382 14.4448 10.3557 14.8789 11.1101 15.1396L11.4324 15.2278V15.2759C11.7554 15.7703 11.9293 16.3465 11.9336 16.9363C11.9379 17.526 11.7723 18.1047 11.4565 18.6037L11.2873 18.8282L11.102 18.8844C10.4027 19.1272 9.76481 19.5185 9.23257 20.0311C8.74759 20.1506 8.24957 20.2099 7.74993 20.2075H5.65491C4.87881 20.2159 4.10977 20.0601 3.39873 19.7504C2.8164 19.5117 2.31364 19.1142 1.94832 18.6037C1.61744 18.1076 1.44601 17.5231 1.4568 16.9278C1.44395 16.3322 1.61555 15.7471 1.94832 15.2518ZM33.8572 18.6037C33.4919 19.1142 32.9891 19.5117 32.4068 19.7504C31.6967 20.0629 30.927 20.2189 30.1506 20.2075H28.0556C27.6216 20.2031 27.1893 20.152 26.7664 20.0551C26.2103 19.4796 25.5256 19.0428 24.768 18.7801C24.6633 18.7801 24.5505 18.716 24.4457 18.6839L24.349 18.6037C24.0218 18.1059 23.8507 17.5226 23.8575 16.9278C23.8477 16.3609 24.0046 15.8034 24.3087 15.324L24.7439 15.2037C25.5083 14.9445 26.201 14.5106 26.7664 13.9367L26.9597 13.7363C27.3323 13.6728 27.7099 13.6433 28.0878 13.6481H30.1829C30.9602 13.6279 31.7326 13.7757 32.4471 14.0811C33.0331 14.3217 33.5348 14.7289 33.8894 15.2518C34.2191 15.7425 34.3905 16.3216 34.381 16.9117C34.3856 17.5159 34.2026 18.1068 33.8572 18.6037ZM27.137 10.8495C26.9213 11.3864 26.5915 11.8706 26.1701 12.2688L26.0492 12.3249C25.2005 12.7443 24.4841 13.3879 23.9784 14.1853C23.864 14.2469 23.7456 14.3005 23.6238 14.3457C23.1866 14.5194 22.709 14.5667 22.2459 14.482C21.8174 14.3867 21.4252 14.1715 21.1154 13.8618C20.8056 13.5521 20.5912 13.1608 20.4974 12.7339C20.415 12.2803 20.4654 11.8127 20.6424 11.3867C20.7082 11.2143 20.7891 11.0479 20.8842 10.8896C21.563 10.4233 22.1164 9.79824 22.4957 9.06929L22.7052 8.8608C23.1077 8.44049 23.5971 8.11217 24.1395 7.89854C24.5715 7.72676 25.0427 7.67682 25.5013 7.7542C25.9341 7.84558 26.3297 8.06335 26.6374 8.37967C26.952 8.68284 27.1657 9.07463 27.2498 9.50231C27.3393 9.94772 27.3001 10.4092 27.137 10.8334V10.8495ZM20.8197 2.56599C21.1243 3.28333 21.2726 4.05678 21.2548 4.83533V6.89618C21.2522 7.32692 21.209 7.75647 21.1259 8.1792C21.0871 8.20983 21.0519 8.24481 21.0212 8.28345C20.4428 8.83206 20.006 9.51153 19.748 10.2641C19.748 10.3683 19.6836 10.4726 19.6594 10.5768C19.1646 10.9012 18.5839 11.0715 17.9914 11.066C17.3891 11.0783 16.7969 10.9107 16.2912 10.5849L16.1865 10.5047C16.1865 10.3924 16.122 10.2721 16.0817 10.1599C15.8198 9.40918 15.3836 8.73058 14.8086 8.1792C14.7227 7.75688 14.6795 7.32706 14.6797 6.89618V4.81128C14.6679 4.04023 14.8188 3.2753 15.1228 2.56599C15.3697 1.98602 15.7744 1.48614 16.2912 1.1226C16.7897 0.793316 17.3771 0.622716 17.9753 0.633447C18.5683 0.623948 19.1502 0.794583 19.6433 1.1226C20.17 1.47765 20.5793 1.97987 20.8197 2.56599ZM10.3445 7.66599C10.8049 7.58197 11.2798 7.62923 11.7144 7.80231C12.2522 8.02023 12.7381 8.34805 13.1406 8.76458L13.4629 9.09335C13.8331 9.78014 14.3603 10.3707 15.002 10.8174C15.0877 10.9716 15.1604 11.1325 15.2195 11.2985C15.4017 11.7289 15.4495 12.204 15.3565 12.6617C15.2666 13.0931 15.0475 13.4873 14.728 13.7924C14.4175 14.1035 14.0227 14.318 13.5919 14.4099C13.1309 14.495 12.6549 14.4448 12.222 14.2655C12.0468 14.1985 11.8771 14.1181 11.7144 14.0249C11.2517 13.3532 10.6324 12.8029 9.90942 12.4212L9.68381 12.1886C9.2627 11.7854 8.93065 11.2993 8.70881 10.7613C8.53292 10.3321 8.48535 9.86152 8.57183 9.40609C8.66534 8.97774 8.88065 8.5852 9.1921 8.27525C9.50356 7.9653 9.89801 7.75103 10.3284 7.65797L10.3445 7.66599ZM8.73299 23.2627C8.93512 22.7172 9.25406 22.2219 9.66769 21.8113L10.272 21.2018C10.7414 20.9126 11.156 20.5435 11.4968 20.1113C11.719 19.9561 11.9599 19.8295 12.214 19.7344C12.6484 19.5609 13.1234 19.5136 13.5838 19.5981C14.014 19.6897 14.4083 19.9037 14.7187 20.214C15.0291 20.5243 15.2422 20.9176 15.3323 21.3462C15.4214 21.8008 15.3766 22.2714 15.2034 22.7014C15.1383 22.8806 15.0546 23.0526 14.9536 23.2146C14.3332 23.6567 13.8209 24.2322 13.4549 24.8985L13.1165 25.2433C12.7146 25.6587 12.2284 25.984 11.6902 26.1976C11.2549 26.3791 10.775 26.4265 10.3123 26.3339C9.88357 26.2419 9.49059 26.0288 9.18045 25.7202C8.87032 25.4116 8.65621 25.0205 8.56377 24.5938C8.47984 24.1376 8.53021 23.667 8.70881 23.2386L8.73299 23.2627ZM15.1793 31.466C14.8475 30.7523 14.677 29.975 14.6797 29.1886V27.1037C14.6837 26.6726 14.7295 26.243 14.8167 25.8207C15.3854 25.2689 15.8183 24.5938 16.0817 23.8481C16.0817 23.7358 16.1462 23.6315 16.1704 23.5273L16.2912 23.415C16.7914 23.0894 17.3776 22.9191 17.9753 22.9259C18.5678 22.9204 19.1485 23.0907 19.6433 23.415H19.6836C19.6836 23.5113 19.7319 23.6155 19.7641 23.7117C20.03 24.4648 20.4687 25.1457 21.0453 25.7004L21.1259 25.8207C21.2095 26.2459 21.25 26.6785 21.2468 27.1117V29.1966C21.2664 29.9642 21.1208 30.727 20.8197 31.4339C20.5779 32.0171 20.1687 32.5164 19.6433 32.8693C19.1432 33.1888 18.5615 33.3586 17.9672 33.3586C17.373 33.3586 16.7913 33.1888 16.2912 32.8693C15.7758 32.5076 15.3714 32.0107 15.1228 31.4339L15.1793 31.466ZM25.5819 26.2858C25.1209 26.3709 24.6449 26.3208 24.212 26.1415C23.6541 25.9236 23.1508 25.587 22.7375 25.1551L22.5118 24.9306C22.1246 24.2203 21.572 23.6126 20.9003 23.1584C20.7996 22.9839 20.7134 22.8016 20.6424 22.6132C20.4665 22.184 20.419 21.7134 20.5055 21.258C20.599 20.8296 20.8143 20.4371 21.1257 20.1271C21.4372 19.8172 21.8316 19.6029 22.2621 19.5098C22.7224 19.4254 23.1974 19.4727 23.6319 19.6462C23.8071 19.7132 23.9768 19.7936 24.1395 19.8867C24.5872 20.5162 25.1745 21.0348 25.8558 21.4023L26.1781 21.7231C26.5988 22.1202 26.9262 22.6048 27.137 23.1424C27.3188 23.5756 27.3692 24.0523 27.2821 24.5136C27.1863 24.9401 26.97 25.3304 26.6588 25.6387C26.3476 25.947 25.9544 26.1603 25.5255 26.2537L25.5819 26.2858Z" fill="#153443"/>
</g>
</g>
</g>
</g>
<defs>
<clipPath id="clip0_163_15564">
<rect width="145" height="34" fill="white" transform="translate(0.820068)"/>
</clipPath>
<clipPath id="clip1_163_15564">
<rect width="145" height="34" fill="white" transform="translate(0.820068)"/>
</clipPath>
<clipPath id="clip2_163_15564">
<rect width="145" height="34" fill="white" transform="translate(0.820068)"/>
</clipPath>
</defs>
</svg>
