<svg width="86" height="28" viewBox="0 0 86 28" fill="none" xmlns="http://www.w3.org/2000/svg">
<g clip-path="url(#clip0_163_15636)">
<g clip-path="url(#clip1_163_15636)">
<g clip-path="url(#clip2_163_15636)">
<mask id="mask0_163_15636" style="mask-type:luminance" maskUnits="userSpaceOnUse" x="0" y="0" width="86" height="28">
<path d="M85.02 0.5H0.0200195V27.5H85.02V0.5Z" fill="white"/>
</mask>
<g mask="url(#mask0_163_15636)">
<path d="M6.76999 22.3428H16.8511L16.0972 26.6682H0.0200195L0.598588 23.3L13.6778 5.20058H3.59663L4.35052 0.857422H20.34L19.779 4.15467L6.76999 22.3428Z" fill="#153443"/>
<path d="M32.9914 15.5H25.2071L24.0324 22.3428H33.2544L32.5005 26.6682H18.2642L22.6824 0.857422H36.9012L36.1472 5.20058H26.9778L25.9259 11.2987H33.7278L32.9914 15.5Z" fill="#153443"/>
<path d="M55.2668 0.857422L52.2863 18.5845C51.924 21.2673 50.9364 23.3591 49.3234 24.86C47.7104 26.3609 45.5948 27.0877 42.9766 27.0404C40.5221 26.9932 38.6637 26.2131 37.4014 24.7005C36.139 23.1877 35.654 21.1491 35.9461 18.5845L38.9266 0.857422H43.976L41.0305 18.6023L40.9604 20.1268C40.9604 21.7813 41.7727 22.6382 43.3974 22.6973C44.5195 22.7328 45.3961 22.4314 46.0273 21.7932C46.6585 21.155 47.0734 20.0914 47.272 18.6023L50.235 0.857422H55.2668Z" fill="#153443"/>
<path d="M65.253 19.7545C65.3699 18.88 65.2412 18.1532 64.8672 17.5741C64.5049 16.9832 63.7393 16.41 62.5704 15.8546C61.4133 15.2873 60.4432 14.7023 59.66 14.0996C57.5211 12.4569 56.5393 10.3828 56.7146 7.87734C56.8198 6.43554 57.2639 5.15327 58.0471 4.03055C58.8418 2.89601 59.8998 2.01557 61.2205 1.3892C62.5413 0.762847 63.9555 0.467395 65.4633 0.502849C67.6489 0.550121 69.3554 1.3183 70.5828 2.80738C71.8217 4.28464 72.3944 6.18145 72.3009 8.4978L67.2867 8.48007C67.4153 6.05736 66.6497 4.82828 64.99 4.79282C64.1368 4.76918 63.4003 5.05282 62.7809 5.64373C62.173 6.22281 61.8049 6.97326 61.6763 7.89507C61.5009 9.27778 62.4477 10.4596 64.5165 11.4405C66.5854 12.4214 68.0698 13.5264 68.9698 14.7555C69.9749 16.1146 70.4015 17.7691 70.2496 19.7191C70.0743 21.9645 69.1977 23.7609 67.6198 25.1081C66.0419 26.4436 64.0724 27.0877 61.7113 27.0404C59.3386 26.9932 57.4627 26.1777 56.0834 24.594C54.7043 23.0104 54.0731 20.9836 54.1899 18.5136L59.2393 18.5314C59.1458 20.0559 59.3386 21.1491 59.8178 21.8109C60.3088 22.4609 61.0744 22.7859 62.1146 22.7859C63.0264 22.7741 63.7451 22.4904 64.2711 21.935C64.797 21.3677 65.1245 20.6409 65.253 19.7545Z" fill="#153443"/>
<path d="M79.9373 3.7168L72.311 16.2844H77.3952V23.825L85.0216 11.2574H79.9373V3.7168Z" fill="#153443" fill-opacity="0.4"/>
</g>
</g>
</g>
</g>
<defs>
<clipPath id="clip0_163_15636">
<rect width="85" height="27" fill="white" transform="translate(0.0200195 0.5)"/>
</clipPath>
<clipPath id="clip1_163_15636">
<rect width="85" height="27" fill="white" transform="translate(0.0200195 0.5)"/>
</clipPath>
<clipPath id="clip2_163_15636">
<rect width="85" height="27" fill="white" transform="translate(0.0200195 0.5)"/>
</clipPath>
</defs>
</svg>
