<svg width="145" height="20" viewBox="0 0 145 20" fill="none" xmlns="http://www.w3.org/2000/svg">
<g clip-path="url(#clip0_163_15595)">
<g clip-path="url(#clip1_163_15595)">
<g clip-path="url(#clip2_163_15595)">
<mask id="mask0_163_15595" style="mask-type:luminance" maskUnits="userSpaceOnUse" x="0" y="0" width="145" height="20">
<path d="M144.38 0.5H0.379883V19.5H144.38V0.5Z" fill="white"/>
</mask>
<g mask="url(#mask0_163_15595)">
<path d="M14.8459 1.37695H18.9808L12.0047 18.7692H8.27556L14.8459 1.37695ZM0.842773 1.37695H4.95236L11.5734 18.7692H7.84431L0.842773 1.37695Z" fill="#153443"/>
<path d="M24.6999 19.0682C23.3977 19.0682 22.2308 18.7949 21.1992 18.2483C20.1844 17.6852 19.3896 16.9149 18.8146 15.9376C18.2395 14.9438 17.9521 13.8174 17.9521 12.5585C17.9521 11.2997 18.2311 10.1816 18.7892 9.20427C19.3642 8.21043 20.1591 7.44022 21.1738 6.8936C22.1885 6.33042 23.3385 6.04883 24.6238 6.04883C25.926 6.04883 27.0845 6.33042 28.0992 6.8936C29.1309 7.44022 29.9257 8.21043 30.4838 9.20427C31.0588 10.1816 31.3463 11.2997 31.3463 12.5585C31.3463 13.8174 31.0588 14.9438 30.4838 15.9376C29.9257 16.9149 29.1393 17.6852 28.1246 18.2483C27.1099 18.7949 25.9683 19.0682 24.6999 19.0682ZM24.6746 15.714C25.2326 15.714 25.7231 15.5815 26.1459 15.3164C26.5856 15.0515 26.9239 14.6788 27.1606 14.1984C27.4143 13.718 27.5411 13.1714 27.5411 12.5585C27.5411 11.9457 27.4143 11.3991 27.1606 10.9187C26.9239 10.4383 26.5771 10.0656 26.1205 9.80058C25.6808 9.5356 25.1819 9.40304 24.6238 9.40304C24.0827 9.40304 23.5922 9.5356 23.1525 9.80058C22.7128 10.0656 22.3661 10.4383 22.1124 10.9187C21.8757 11.3991 21.7572 11.9457 21.7572 12.5585C21.7572 13.1714 21.8757 13.718 22.1124 14.1984C22.3661 14.6788 22.7128 15.0515 23.1525 15.3164C23.6091 15.5815 24.1165 15.714 24.6746 15.714Z" fill="#153443"/>
<path d="M35.2017 12.3096C35.2017 11.0342 35.4554 9.94097 35.9627 9.02992C36.4869 8.11895 37.1634 7.4398 37.9921 6.99257C38.8377 6.52877 39.7425 6.29688 40.7065 6.29688V9.82501C39.4381 9.82501 38.3727 10.0404 37.5102 10.471C36.6477 10.8851 36.2164 11.5063 36.2164 12.3345L35.2017 12.3096ZM32.4873 6.34656H36.2164V18.7696H32.4873V6.34656Z" fill="#153443"/>
<path d="M46.8878 19.0679C45.4334 19.0679 44.3342 18.7284 43.59 18.0492C42.8629 17.3535 42.4992 16.3514 42.4992 15.0428V2.4707H46.2029V14.1732C46.2029 14.7033 46.3044 15.0925 46.5073 15.341C46.7103 15.5895 47.0316 15.7137 47.4713 15.7137C47.6235 15.7137 47.8011 15.6723 48.004 15.5895C48.207 15.5067 48.4015 15.4073 48.5875 15.2913L49.8812 17.9747C49.4584 18.306 48.9764 18.571 48.4353 18.7698C47.911 18.9685 47.3952 19.0679 46.8878 19.0679ZM40.4951 6.3467H49.2217V9.40276H40.4951V6.3467Z" fill="#153443"/>
<path d="M56.6649 19.0682C55.3965 19.0682 54.2634 18.7949 53.2656 18.2483C52.2678 17.6852 51.4814 16.9149 50.9064 15.9376C50.3483 14.9438 50.0693 13.8174 50.0693 12.5585C50.0693 11.2997 50.3483 10.1816 50.9064 9.20427C51.4814 8.21043 52.2763 7.44022 53.291 6.8936C54.3226 6.33042 55.481 6.04883 56.7664 6.04883C57.9671 6.04883 59.041 6.33871 59.9881 6.91845C60.9351 7.49819 61.6877 8.35124 62.2458 9.47758C62.8039 10.5874 63.083 11.9291 63.083 13.5027H53.5193L53.8998 13.1051C53.8998 13.9831 54.1873 14.687 54.7623 15.2171C55.3373 15.7306 56.0476 15.9873 56.8932 15.9873C57.519 15.9873 58.0517 15.8548 58.4914 15.5898C58.9311 15.3248 59.2524 14.9603 59.4554 14.4965L62.7532 15.6643C62.2289 16.7741 61.4425 17.6189 60.394 18.1986C59.3455 18.7784 58.1024 19.0682 56.6649 19.0682ZM53.6715 10.9684H59.5315L59.2017 11.3908C59.2017 10.5626 58.9396 9.94966 58.4153 9.55212C57.9079 9.13806 57.3245 8.93096 56.6649 8.93096C56.259 8.93096 55.8531 9.01383 55.4472 9.17942C55.0414 9.34509 54.7031 9.6184 54.4325 9.99935C54.1619 10.3638 54.0266 10.8276 54.0266 11.3908L53.6715 10.9684Z" fill="#153443"/>
<path d="M67.551 11.6896L71.1786 6.34766H75.567L70.443 13.3294L66.79 18.7707H62.3506L67.551 11.6896ZM67.8301 13.3294L62.6804 6.34766H67.069L70.6713 11.6896L75.8714 18.7707H71.4577L67.8301 13.3294Z" fill="#153443"/>
<path d="M83.3231 19.0687C82.0547 19.0687 80.9639 18.8948 80.0507 18.5469C79.1374 18.1991 78.4017 17.7436 77.8436 17.1804C77.2856 16.6007 76.8797 15.9629 76.626 15.2672L78.1481 14.6958C78.4525 15.524 79.0359 16.2197 79.8985 16.7829C80.761 17.3461 81.7757 17.6276 82.9426 17.6276C84.4818 17.6276 85.6823 17.3378 86.5448 16.758C87.4245 16.1783 87.864 15.3998 87.864 14.4225C87.864 13.5446 87.4834 12.8241 86.7224 12.2609C85.9785 11.6811 84.9302 11.2257 83.5768 10.8943L81.7757 10.4471C80.4565 10.1158 79.3911 9.59402 78.5793 8.88174C77.7847 8.15296 77.387 7.20051 77.387 6.02447C77.387 4.45088 77.8944 3.23342 78.9091 2.37208C79.941 1.51075 81.4205 1.08008 83.3485 1.08008C84.4483 1.08008 85.4204 1.27057 86.2658 1.65154C87.1283 2.01596 87.8222 2.48802 88.346 3.06776C88.8876 3.63095 89.251 4.21898 89.4368 4.83185L87.9401 5.40331C87.5685 4.49228 86.9597 3.78831 86.1136 3.29139C85.2682 2.7779 84.2617 2.52116 83.0948 2.52116C81.8436 2.52116 80.846 2.81931 80.1014 3.41562C79.3747 4.01193 79.0106 4.81528 79.0106 5.8257C79.0106 6.68703 79.2732 7.35788 79.797 7.83821C80.3387 8.30203 81.1161 8.65814 82.1308 8.9066L83.9319 9.32897C85.6741 9.7431 87.0358 10.3974 88.0162 11.2919C88.9973 12.1863 89.4875 13.1553 89.4875 14.1989C89.4875 15.0933 89.251 15.9132 88.7772 16.6586C88.3206 17.3875 87.6274 17.9755 86.697 18.4227C85.7674 18.8534 84.6422 19.0687 83.3231 19.0687Z" fill="#153443"/>
<path d="M96.4936 19.0679C95.3267 19.0679 94.4134 18.7615 93.7538 18.1486C93.0943 17.5358 92.7645 16.6827 92.7645 15.5895V2.4707H94.2866V15.5895C94.2866 16.252 94.4806 16.7738 94.87 17.1548C95.2588 17.5192 95.7997 17.7014 96.4936 17.7014C96.7129 17.7014 96.9159 17.6683 97.1024 17.602C97.3053 17.5358 97.5844 17.3867 97.9395 17.1548L98.5737 18.4468C98.1507 18.6952 97.7784 18.8609 97.4576 18.9437C97.1531 19.0266 96.8316 19.0679 96.4936 19.0679ZM90.5068 6.3467H98.3201V7.71324H90.5068V6.3467Z" fill="#153443"/>
<path d="M109.081 16.4849V6.34766H110.603V18.7707H109.183L109.081 16.4849ZM101.496 12.7083C101.496 14.6132 101.818 15.9218 102.46 16.634C103.12 17.3297 104.05 17.6775 105.251 17.6775C106.452 17.6775 107.391 17.2469 108.067 16.3855C108.743 15.5076 109.081 14.2902 109.081 12.7331H110.02C110.02 14.0583 109.826 15.1929 109.436 16.1371C109.048 17.0812 108.472 17.8101 107.711 18.3235C106.968 18.8204 106.054 19.0689 104.972 19.0689C103.416 19.0689 102.19 18.6052 101.293 17.6775C100.397 16.7334 99.9577 15.2674 99.9741 13.2797V12.7083H101.496ZM99.9741 6.34766H101.496V12.7083H99.9741V6.34766Z" fill="#153443"/>
<path d="M122.949 16.4594V0.880859H124.471V18.7701H123.025L122.949 16.4594ZM118.484 19.0682C117.385 19.0682 116.396 18.7949 115.516 18.2483C114.654 17.6852 113.978 16.915 113.487 15.9376C112.997 14.9438 112.751 13.8174 112.751 12.5586C112.751 11.2997 112.997 10.1816 113.487 9.2043C113.978 8.21046 114.654 7.44025 115.516 6.89363C116.396 6.33045 117.385 6.04886 118.484 6.04886C119.55 6.04886 120.497 6.33045 121.325 6.89363C122.154 7.44025 122.797 8.21046 123.253 9.2043C123.727 10.1816 123.964 11.2997 123.964 12.5586C123.964 13.8174 123.727 14.9438 123.253 15.9376C122.797 16.915 122.154 17.6852 121.325 18.2483C120.497 18.7949 119.55 19.0682 118.484 19.0682ZM118.789 17.7266C119.584 17.7266 120.294 17.5113 120.92 17.0806C121.563 16.6333 122.061 16.0205 122.416 15.2419C122.771 14.4469 122.949 13.5524 122.949 12.5586C122.949 11.5647 122.771 10.6786 122.416 9.89999C122.061 9.10492 121.563 8.49209 120.92 8.06138C120.294 7.61417 119.575 7.39055 118.763 7.39055C117.901 7.39055 117.123 7.61417 116.429 8.06138C115.753 8.49209 115.221 9.10492 114.831 9.89999C114.46 10.6786 114.273 11.5647 114.273 12.5586C114.273 13.5524 114.468 14.4469 114.857 15.2419C115.246 16.0205 115.779 16.6333 116.455 17.0806C117.149 17.5113 117.926 17.7266 118.789 17.7266Z" fill="#153443"/>
<path d="M127.491 6.3466H129.013V18.7697H127.491V6.3466ZM128.278 3.1166C128.007 3.1166 127.77 3.01722 127.567 2.81845C127.364 2.61968 127.263 2.38778 127.263 2.12275C127.263 1.84117 127.364 1.60926 127.567 1.42706C127.77 1.22829 128.007 1.12891 128.278 1.12891C128.565 1.12891 128.801 1.22829 128.988 1.42706C129.191 1.60926 129.292 1.84117 129.292 2.12275C129.292 2.38778 129.191 2.61968 128.988 2.81845C128.801 3.01722 128.565 3.1166 128.278 3.1166Z" fill="#153443"/>
<path d="M137.556 19.0682C136.356 19.0682 135.282 18.7949 134.334 18.2483C133.387 17.6852 132.644 16.9149 132.102 15.9376C131.578 14.9438 131.316 13.8174 131.316 12.5585C131.316 11.2997 131.578 10.1816 132.102 9.20427C132.626 8.21043 133.354 7.44022 134.284 6.8936C135.231 6.33042 136.305 6.04883 137.505 6.04883C138.707 6.04883 139.78 6.33042 140.727 6.8936C141.675 7.44022 142.41 8.21043 142.934 9.20427C143.459 10.1816 143.72 11.2997 143.72 12.5585C143.72 13.8174 143.459 14.9438 142.934 15.9376C142.41 16.9149 141.675 17.6852 140.727 18.2483C139.797 18.7949 138.74 19.0682 137.556 19.0682ZM137.556 17.7017C138.453 17.7017 139.247 17.4864 139.941 17.0557C140.651 16.6084 141.201 15.9956 141.59 15.2171C141.995 14.4386 142.198 13.5524 142.198 12.5585C142.198 11.5647 141.995 10.6785 141.59 9.89996C141.201 9.12147 140.643 8.51691 139.915 8.08619C139.205 7.63899 138.402 7.41537 137.505 7.41537C136.609 7.41537 135.806 7.63899 135.095 8.08619C134.385 8.51691 133.827 9.12147 133.421 9.89996C133.032 10.6785 132.838 11.5647 132.838 12.5585C132.838 13.5524 133.032 14.4386 133.421 15.2171C133.827 15.9956 134.385 16.6084 135.095 17.0557C135.823 17.4864 136.643 17.7017 137.556 17.7017Z" fill="#153443"/>
</g>
</g>
</g>
</g>
<defs>
<clipPath id="clip0_163_15595">
<rect width="144" height="19" fill="white" transform="translate(0.379883 0.5)"/>
</clipPath>
<clipPath id="clip1_163_15595">
<rect width="144" height="19" fill="white" transform="translate(0.379883 0.5)"/>
</clipPath>
<clipPath id="clip2_163_15595">
<rect width="144" height="19" fill="white" transform="translate(0.379883 0.5)"/>
</clipPath>
</defs>
</svg>
