<svg width="95" height="38" viewBox="0 0 95 38" fill="none" xmlns="http://www.w3.org/2000/svg">
<g clip-path="url(#clip0_163_15614)">
<g clip-path="url(#clip1_163_15614)">
<g clip-path="url(#clip2_163_15614)">
<mask id="mask0_163_15614" style="mask-type:luminance" maskUnits="userSpaceOnUse" x="0" y="0" width="95" height="38">
<path d="M94.1602 0H0.160156V38H94.1602V0Z" fill="white"/>
</mask>
<g mask="url(#mask0_163_15614)">
<path d="M0.240234 28.0007V27.7847L3.73224 27.0647V3.73666L0.600234 3.01666V2.80066L13.1643 2.76466C20.9403 2.47666 25.9803 6.43666 25.9803 14.2127C25.9803 23.4287 15.3243 27.9287 12.9483 28.0367L0.240234 28.0007ZM7.33224 25.4807C8.44824 26.5247 12.5163 26.5247 14.3523 26.5247C19.6803 26.5247 21.9123 22.2047 21.9123 14.6087C21.9123 6.50866 17.9523 3.34066 10.2483 3.34066C9.70824 3.34066 8.12424 3.37666 7.33224 3.55666V25.4807Z" fill="#153443"/>
<path d="M27.0469 20.0084C27.0469 14.3924 33.2749 11.4044 35.6869 10.6484C39.1429 10.6484 41.0869 11.5124 41.9869 12.3044L41.9509 27.4244L44.3629 27.8204V28.0004H38.9989L39.0709 23.5004H38.8909C37.2709 25.4804 35.0029 27.8564 33.4909 28.4684C29.7469 28.4684 27.0469 25.6964 27.0469 20.0084ZM30.1069 18.7124C30.1069 23.1404 32.4829 25.8764 34.5709 25.8764C35.8669 25.8764 37.3789 24.7604 38.6749 23.2844L38.7469 14.3204C37.6669 12.9884 36.4069 12.1604 34.8589 12.1604C31.4749 12.1604 30.1069 14.2124 30.1069 18.7124Z" fill="#153443"/>
<path d="M44.9414 28.0001V27.8201L47.3534 27.4241V11.7281L45.6254 11.2961V11.0801H50.0175L50.4494 11.1521L50.1254 14.7161H50.2694C51.8174 12.7721 53.9775 11.0441 54.6615 10.8281C56.2455 10.9001 57.3255 11.5841 57.9735 12.2321L55.8135 14.8961C55.2375 14.2481 54.6974 13.9601 54.1574 13.7441C53.2574 13.4201 51.9615 13.2401 50.5575 14.9681V27.4241L53.0775 27.8201V28.0001H44.9414Z" fill="#153443"/>
<path d="M57.5957 28V27.82L60.0077 27.424V1.828L57.5957 1.216V1H62.9237L63.3557 1.036L62.7797 19.18H62.9957L70.6997 11.872H70.6637L68.3237 11.296V11.08H74.7677V11.296L71.7797 11.908L66.1277 17.056L66.7397 16.552L73.8678 27.424L76.2437 27.82V28H67.8197V27.82L70.2317 27.424H70.1597L64.5797 18.424L63.2117 19.684V27.424L65.5877 27.82V28H57.5957Z" fill="#153443"/>
<path d="M93.5565 10.9364L93.8444 10.9724L88.8765 27.7124L92.5845 25.8404L92.6924 26.0564L88.0125 28.7204C87.1485 28.0724 86.7165 27.6044 86.0685 26.5244L90.3885 11.9804L90.5325 11.9444L83.5485 12.3044H83.5125C81.6765 18.4604 79.6245 25.6244 78.9045 28.2164C78.2205 29.6564 72.2445 37.2884 70.9125 37.2884C69.6885 37.3244 68.5005 37.0004 67.8164 36.3164L70.6605 34.7324C72.4965 35.2724 73.8285 34.3364 74.1525 34.0484C74.6925 32.7884 76.6725 25.2644 77.0685 23.5364L80.3444 11.9804H80.3085L78.2204 12.2324L78.0405 11.3684L80.4885 11.3324H80.5245L80.9205 9.92836C81.6045 7.51636 88.2645 1.00036 90.7485 0.568359C91.9725 0.568359 93.1604 0.784359 93.8444 1.54036L91.2885 3.48436C90.8204 3.37636 90.2445 3.34036 89.6685 3.34036C88.1565 3.34036 86.5365 3.70036 85.9605 4.31236C85.3845 6.11236 84.5565 8.81236 83.6565 11.8364H83.7285C87.0405 11.8364 91.0365 11.3684 93.3405 10.9364L93.4485 10.9004H93.5565V10.9364Z" fill="#153443"/>
</g>
</g>
</g>
</g>
<defs>
<clipPath id="clip0_163_15614">
<rect width="94" height="38" fill="white" transform="translate(0.160156)"/>
</clipPath>
<clipPath id="clip1_163_15614">
<rect width="94" height="38" fill="white" transform="translate(0.160156)"/>
</clipPath>
<clipPath id="clip2_163_15614">
<rect width="94" height="38" fill="white" transform="translate(0.160156)"/>
</clipPath>
</defs>
</svg>
