<svg width="104" height="34" viewBox="0 0 104 34" fill="none" xmlns="http://www.w3.org/2000/svg">
<g clip-path="url(#clip0_163_15626)">
<g clip-path="url(#clip1_163_15626)">
<g clip-path="url(#clip2_163_15626)">
<path d="M43.8444 23.3893H41.8684C41.6467 23.3893 41.4631 23.3355 41.3174 23.2278C41.1781 23.1138 41.0767 22.9745 41.0134 22.8098L39.9874 20.0073H34.2969L33.2709 22.8098C33.2202 22.9555 33.1189 23.0885 32.9669 23.2088C32.8212 23.3291 32.6407 23.3893 32.4254 23.3893H30.4399L35.8359 9.65234H38.4484L43.8444 23.3893ZM34.9524 18.2023H39.3319L37.6599 13.6328C37.5839 13.4301 37.4984 13.1926 37.4034 12.9203C37.3147 12.6416 37.2261 12.3408 37.1374 12.0178C37.0487 12.3408 36.9601 12.6416 36.8714 12.9203C36.7891 13.199 36.7067 13.4428 36.6244 13.6518L34.9524 18.2023Z" fill="#153443"/>
<path d="M61.6375 16.5208C61.6375 17.5278 61.4696 18.4525 61.134 19.2948C60.7983 20.1371 60.3265 20.8623 59.7185 21.4703C59.1105 22.0783 58.379 22.5501 57.524 22.8858C56.669 23.2215 55.7221 23.3893 54.6835 23.3893H49.4395V9.65234H54.6835C55.7221 9.65234 56.669 9.82334 57.524 10.1653C58.379 10.501 59.1105 10.9728 59.7185 11.5808C60.3265 12.1825 60.7983 12.9045 61.134 13.7468C61.4696 14.5891 61.6375 15.5138 61.6375 16.5208ZM59.025 16.5208C59.025 15.7671 58.9236 15.0926 58.721 14.4973C58.5183 13.8956 58.2301 13.389 57.8565 12.9773C57.4828 12.5593 57.0268 12.2395 56.4885 12.0178C55.9565 11.7961 55.3548 11.6853 54.6835 11.6853H52.014V21.3563H54.6835C55.3548 21.3563 55.9565 21.2455 56.4885 21.0238C57.0268 20.8021 57.4828 20.4855 57.8565 20.0738C58.2301 19.6558 58.5183 19.1491 58.721 18.5538C58.9236 17.9521 59.025 17.2745 59.025 16.5208Z" fill="#153443"/>
<path d="M65.9268 9.65234H67.9883C68.21 9.65234 68.3905 9.70617 68.5298 9.81384C68.6691 9.92151 68.7736 10.0608 68.8433 10.2318L72.0733 18.6108C72.181 18.8831 72.2823 19.184 72.3773 19.5133C72.4786 19.8363 72.5736 20.1783 72.6623 20.5393C72.808 19.811 72.9885 19.1681 73.2038 18.6108L76.4243 10.2318C76.4813 10.0862 76.5826 9.95317 76.7283 9.83284C76.874 9.71251 77.0545 9.65234 77.2698 9.65234H79.3313L73.7833 23.3893H71.4748L65.9268 9.65234Z" fill="#153443"/>
<path d="M87.8233 23.3893H85.2583V9.65234H87.8233V23.3893Z" fill="#153443"/>
<path d="M102.462 12.1505C102.392 12.2898 102.31 12.388 102.215 12.445C102.126 12.502 102.019 12.5305 101.892 12.5305C101.765 12.5305 101.623 12.483 101.464 12.388C101.306 12.2867 101.119 12.1758 100.904 12.0555C100.688 11.9352 100.435 11.8275 100.144 11.7325C99.8587 11.6312 99.5198 11.5805 99.1272 11.5805C98.7725 11.5805 98.4622 11.6248 98.1962 11.7135C97.9365 11.7958 97.7148 11.913 97.5312 12.065C97.3538 12.217 97.2208 12.4007 97.1322 12.616C97.0435 12.825 96.9992 13.0562 96.9992 13.3095C96.9992 13.6325 97.0878 13.9017 97.2652 14.117C97.4488 14.3323 97.6895 14.516 97.9872 14.668C98.2848 14.82 98.6237 14.9562 99.0037 15.0765C99.3837 15.1968 99.77 15.3267 100.163 15.466C100.562 15.599 100.951 15.7573 101.331 15.941C101.711 16.1183 102.05 16.3463 102.348 16.625C102.646 16.8973 102.883 17.233 103.06 17.632C103.244 18.031 103.336 18.5155 103.336 19.0855C103.336 19.7062 103.228 20.2888 103.013 20.8335C102.804 21.3718 102.494 21.8437 102.082 22.249C101.677 22.648 101.179 22.9647 100.59 23.199C100.001 23.427 99.3267 23.541 98.5667 23.541C98.1297 23.541 97.699 23.4967 97.2747 23.408C96.8503 23.3257 96.4418 23.2053 96.0492 23.047C95.6628 22.8887 95.2987 22.6987 94.9567 22.477C94.621 22.2553 94.3202 22.0083 94.0542 21.736L94.7952 20.5105C94.8648 20.4218 94.9472 20.349 95.0422 20.292C95.1435 20.2287 95.2543 20.197 95.3747 20.197C95.533 20.197 95.704 20.2635 95.8877 20.3965C96.0713 20.5232 96.2867 20.6657 96.5337 20.824C96.787 20.9823 97.0815 21.128 97.4172 21.261C97.7592 21.3877 98.1677 21.451 98.6427 21.451C99.371 21.451 99.9347 21.28 100.334 20.938C100.733 20.5897 100.932 20.0925 100.932 19.4465C100.932 19.0855 100.84 18.791 100.657 18.563C100.479 18.335 100.242 18.145 99.9442 17.993C99.6465 17.8347 99.3077 17.7017 98.9277 17.594C98.5477 17.4863 98.1613 17.3692 97.7687 17.2425C97.376 17.1158 96.9897 16.9638 96.6097 16.7865C96.2297 16.6092 95.8908 16.378 95.5932 16.093C95.2955 15.808 95.0548 15.4533 94.8712 15.029C94.6938 14.5983 94.6052 14.0695 94.6052 13.4425C94.6052 12.9422 94.7033 12.4545 94.8997 11.9795C95.1023 11.5045 95.3937 11.0833 95.7737 10.716C96.16 10.3487 96.6318 10.0542 97.1892 9.8325C97.7465 9.61083 98.383 9.5 99.0987 9.5C99.9093 9.5 100.657 9.62667 101.341 9.88C102.025 10.1333 102.608 10.488 103.089 10.944L102.462 12.1505Z" fill="#153443"/>
<path d="M5.10858 32.8276H0.939941L14.3722 0.5H18.4327L23.8112 13.3726L20.9549 20.2276L17.078 10.8333H14.2284L23.3672 32.8276H16.5065L10.7803 19.0846L5.10858 32.8276Z" fill="#153443"/>
<path d="M26.2295 32.8279H31.9401L29.0848 25.9941L26.2295 32.8279Z" fill="#153443"/>
</g>
</g>
</g>
<defs>
<clipPath id="clip0_163_15626">
<rect width="103" height="33" fill="white" transform="translate(0.939941 0.5)"/>
</clipPath>
<clipPath id="clip1_163_15626">
<rect width="103" height="33" fill="white" transform="translate(0.939941 0.5)"/>
</clipPath>
<clipPath id="clip2_163_15626">
<rect width="103" height="33" fill="white" transform="translate(0.939941 0.5)"/>
</clipPath>
</defs>
</svg>
