<svg width="52" height="47" viewBox="0 0 52 47" fill="none" xmlns="http://www.w3.org/2000/svg">
<path d="M34.3644 20.3869C33.8056 19.8163 33.1254 19.3788 32.3744 19.107C31.6234 18.8353 30.8208 18.7362 30.0262 18.8171C29.2316 18.898 28.4655 19.1568 27.7847 19.5744C27.1038 19.992 26.5258 20.5575 26.0935 21.2291C25.6613 20.5574 25.0833 19.9916 24.4025 19.5739C23.7216 19.1563 22.9554 18.8973 22.1608 18.8164C21.3662 18.7355 20.5635 18.8347 19.8124 19.1066C19.0614 19.3785 18.3812 19.8161 17.8225 20.3869C16.8144 21.4179 16.25 22.8026 16.25 24.2446C16.25 25.6865 16.8144 27.0712 17.8225 28.1022L26.0935 36.5077L34.3666 28.1033C35.3739 27.0716 35.9377 25.6866 35.9373 24.2447C35.9369 22.8027 35.3723 21.4181 34.3644 20.3869Z" fill="#D4D4D8" stroke="#161616" stroke-width="2.1875" stroke-miterlimit="10" stroke-linecap="round" stroke-linejoin="round"/>
<path d="M45.7812 45.0391H6.40625C5.24593 45.0391 4.13313 44.5781 3.31266 43.7577C2.49219 42.9372 2.03125 41.8244 2.03125 40.6641V1.28906H19.5312L25 10.0391H50.1562V40.6641C50.1562 41.8244 49.6953 42.9372 48.8748 43.7577C48.0544 44.5781 46.9416 45.0391 45.7812 45.0391Z" stroke="#161616" stroke-width="2.1875" stroke-miterlimit="10" stroke-linecap="round" stroke-linejoin="round"/>
</svg>
