<svg width="27" height="27" viewBox="0 0 27 27" fill="none" xmlns="http://www.w3.org/2000/svg">
<g clip-path="url(#clip0_163_8148)">
<mask id="mask0_163_8148" style="mask-type:luminance" maskUnits="userSpaceOnUse" x="0" y="0" width="27" height="27">
<path d="M26.08 0.890625H0V26.9706H26.08V0.890625Z" fill="white"/>
</mask>
<g mask="url(#mask0_163_8148)">
<path d="M13.539 2.69764C13.3943 2.58476 13.2161 2.52344 13.0325 2.52344C12.8491 2.52344 12.6708 2.58476 12.5262 2.69764L0.814941 11.8302L1.82774 13.1111L3.25994 11.9944V22.0834C3.26082 22.5155 3.43284 22.9295 3.73833 23.235C4.04383 23.5405 4.45791 23.7125 4.88994 23.7134H21.1899C21.622 23.7126 22.0361 23.5406 22.3417 23.2351C22.6471 22.9296 22.8191 22.5155 22.8199 22.0834V12.0018L24.2521 13.1184L25.2649 11.8374L13.539 2.69764ZM14.6699 22.0834H11.4099V15.5634H14.6699V22.0834ZM16.2999 22.0834V15.5634C16.2994 15.1312 16.1275 14.7169 15.822 14.4114C15.5164 14.1058 15.1021 13.9338 14.6699 13.9334H11.4099C10.9778 13.9338 10.5634 14.1057 10.2578 14.4113C9.95224 14.7168 9.78037 15.1312 9.77994 15.5634V22.0834H4.88994V10.7235L13.0399 4.37467L21.1899 10.7321V22.0834H16.2999Z" fill="#153443"/>
</g>
</g>
<defs>
<clipPath id="clip0_163_8148">
<rect width="26.08" height="26.08" fill="white" transform="translate(0 0.890625)"/>
</clipPath>
</defs>
</svg>
