<svg width="9" height="14" viewBox="0 0 9 14" fill="none" xmlns="http://www.w3.org/2000/svg">
<path fill-rule="evenodd" clip-rule="evenodd" d="M8.20441 6.29318C8.39188 6.48071 8.4972 6.73502 8.4972 7.00018C8.4972 7.26534 8.39188 7.51965 8.20441 7.70718L2.54741 13.3642C2.45517 13.4597 2.34482 13.5359 2.22282 13.5883C2.10081 13.6407 1.96959 13.6683 1.83681 13.6694C1.70404 13.6706 1.57236 13.6453 1.44946 13.595C1.32656 13.5447 1.21491 13.4705 1.12102 13.3766C1.02713 13.2827 0.952872 13.171 0.902591 13.0481C0.85231 12.9252 0.827009 12.7936 0.828163 12.6608C0.829317 12.528 0.856903 12.3968 0.909312 12.2748C0.961721 12.1528 1.0379 12.0424 1.13341 11.9502L6.08341 7.00018L1.13341 2.05018C0.951255 1.86158 0.850461 1.60898 0.852739 1.34678C0.855017 1.08458 0.960186 0.83377 1.14559 0.648362C1.331 0.462954 1.58182 0.357785 1.84401 0.355507C2.10621 0.353228 2.35881 0.454022 2.54741 0.636181L8.20441 6.29318Z" fill="black"/>
</svg>
