<svg width="24" height="25" viewBox="0 0 24 25" fill="none" xmlns="http://www.w3.org/2000/svg">
<g clip-path="url(#clip0_789_5363)">
<path d="M22.2234 0.949951H1.77187C0.792187 0.949951 0 1.72339 0 2.67964V23.2156C0 24.1718 0.792187 24.95 1.77187 24.95H22.2234C23.2031 24.95 24 24.1718 24 23.2203V2.67964C24 1.72339 23.2031 0.949951 22.2234 0.949951ZM7.12031 21.4015H3.55781V9.94526H7.12031V21.4015ZM5.33906 8.38433C4.19531 8.38433 3.27188 7.46089 3.27188 6.32183C3.27188 5.18276 4.19531 4.25933 5.33906 4.25933C6.47813 4.25933 7.40156 5.18276 7.40156 6.32183C7.40156 7.4562 6.47813 8.38433 5.33906 8.38433ZM20.4516 21.4015H16.8937V15.8328C16.8937 14.5062 16.8703 12.7953 15.0422 12.7953C13.1906 12.7953 12.9094 14.2437 12.9094 15.739V21.4015H9.35625V9.94526H12.7687V11.5109H12.8156C13.2891 10.6109 14.4516 9.65933 16.1813 9.65933C19.7859 9.65933 20.4516 12.0312 20.4516 15.1156V21.4015Z" fill="#98A2B3"/>
</g>
<defs>
<clipPath id="clip0_789_5363">
<rect width="24" height="24" fill="white" transform="translate(0 0.949951)"/>
</clipPath>
</defs>
</svg>
