<svg width="9" height="14" viewBox="0 0 9 14" fill="none" xmlns="http://www.w3.org/2000/svg">
<path fill-rule="evenodd" clip-rule="evenodd" d="M0.795587 6.29318C0.608116 6.48071 0.5028 6.73502 0.5028 7.00018C0.5028 7.26534 0.608116 7.51965 0.795587 7.70718L6.45259 13.3642C6.54483 13.4597 6.65518 13.5359 6.77718 13.5883C6.89919 13.6407 7.03041 13.6683 7.16319 13.6694C7.29596 13.6706 7.42764 13.6453 7.55054 13.595C7.67344 13.5447 7.78509 13.4705 7.87898 13.3766C7.97287 13.2827 8.04713 13.171 8.09741 13.0481C8.14769 12.9252 8.17299 12.7936 8.17184 12.6608C8.17068 12.528 8.1431 12.3968 8.09069 12.2748C8.03828 12.1528 7.9621 12.0424 7.86659 11.9502L2.91659 7.00018L7.86659 2.05018C8.04875 1.86158 8.14954 1.60898 8.14726 1.34678C8.14498 1.08458 8.03981 0.83377 7.85441 0.648362C7.669 0.462954 7.41818 0.357785 7.15599 0.355507C6.89379 0.353228 6.64119 0.454022 6.45259 0.636181L0.795587 6.29318Z" fill="black"/>
</svg>
