<svg width="27" height="27" viewBox="0 0 27 27" fill="none" xmlns="http://www.w3.org/2000/svg">
<g clip-path="url(#clip0_163_8188)">
<mask id="mask0_163_8188" style="mask-type:luminance" maskUnits="userSpaceOnUse" x="0" y="0" width="27" height="27">
<path d="M26.08 0.890625H0V26.9706H26.08V0.890625Z" fill="white"/>
</mask>
<g mask="url(#mask0_163_8188)">
<path d="M13.0399 18.823C12.0727 18.823 11.1273 18.5362 10.3232 17.9988C9.51901 17.4615 8.89225 16.6979 8.52214 15.8043C8.15202 14.9108 8.05518 13.9276 8.24386 12.9789C8.43255 12.0304 8.89828 11.1591 9.58216 10.4752C10.266 9.79135 11.1374 9.32562 12.0859 9.13693C13.0345 8.94825 14.0177 9.04509 14.9112 9.4152C15.8048 9.78532 16.5684 10.4121 17.1058 11.2162C17.6431 12.0204 17.9299 12.9658 17.9299 13.933C17.9368 14.577 17.8151 15.2161 17.5718 15.8124C17.3286 16.4089 16.9686 16.9507 16.5132 17.4062C16.0577 17.8616 15.5158 18.2216 14.9194 18.4649C14.323 18.7081 13.684 18.8299 13.0399 18.823ZM13.0399 10.673C12.6091 10.6632 12.1809 10.7408 11.7808 10.9012C11.3809 11.0616 11.0177 11.3014 10.713 11.606C10.4083 11.9108 10.1685 12.274 10.0082 12.6739C9.84778 13.0739 9.77013 13.5021 9.7799 13.933C9.77013 14.3638 9.84778 14.792 10.0082 15.192C10.1685 15.592 10.4083 15.9552 10.713 16.2599C11.0177 16.5645 11.3809 16.8044 11.7808 16.9648C12.1809 17.1251 12.6091 17.2027 13.0399 17.193C13.4707 17.2027 13.8989 17.1251 14.299 16.9648C14.6989 16.8044 15.0621 16.5645 15.3668 16.2599C15.6715 15.9552 15.9113 15.592 16.0717 15.192C16.232 14.792 16.3096 14.3638 16.2999 13.933C16.3096 13.5021 16.232 13.0739 16.0717 12.6739C15.9113 12.274 15.6715 11.9108 15.3668 11.606C15.0621 11.3014 14.6989 11.0616 14.299 10.9012C13.8989 10.7408 13.4707 10.6632 13.0399 10.673Z" fill="#153443"/>
<path d="M23.8835 9.8943L21.9596 6.56274C21.7715 6.23617 21.4759 5.98498 21.1232 5.85202C20.7705 5.71905 20.3826 5.71256 20.0257 5.83364L18.0419 6.50463C17.7001 6.27438 17.3428 6.06789 16.9727 5.88661L16.5622 3.83396C16.4883 3.46437 16.2887 3.13181 15.9972 2.89287C15.7057 2.65394 15.3404 2.52339 14.9635 2.52344H11.1167C10.7398 2.52339 10.3746 2.65394 10.0831 2.89287C9.79163 3.13181 9.59197 3.46437 9.5181 3.83396L9.10759 5.88661C8.73335 6.06594 8.37205 6.27111 8.02632 6.50064L6.05451 5.83364C5.69761 5.71256 5.30974 5.71905 4.95709 5.85202C4.60442 5.98498 4.30882 6.23617 4.12068 6.56274L2.1968 9.8943C2.00844 10.2207 1.93897 10.6022 2.00017 10.9741C2.06136 11.3459 2.24947 11.685 2.53249 11.9338L4.10618 13.3167C4.09224 13.5216 4.07512 13.7254 4.07512 13.9334C4.07512 14.1436 4.08328 14.3513 4.09778 14.5575L2.53249 15.9332C2.24947 16.1819 2.06136 16.5211 2.00017 16.8929C1.93897 17.2648 2.00844 17.6462 2.1968 17.9726L4.12068 21.3043C4.30882 21.6308 4.60442 21.882 4.95709 22.015C5.30974 22.1479 5.69761 22.1545 6.05451 22.0334L8.03831 21.3624C8.38007 21.5928 8.73734 21.7993 9.10759 21.9804L9.5181 24.0331C9.592 24.4027 9.79167 24.7352 10.0831 24.9741C10.3746 25.2129 10.7398 25.3435 11.1167 25.3434H14.6701V23.7134H11.1167L10.5381 20.8196C9.7377 20.5223 8.99469 20.0891 8.34181 19.5389L5.53218 20.4893L3.60878 17.1577L5.8299 15.2057C5.67797 14.363 5.67604 13.4999 5.8242 12.6565L3.60854 10.7093L5.53283 7.37774L8.32559 8.32241C8.98301 7.77179 9.73161 7.3403 10.5376 7.04742L11.1167 4.15344H14.9635L15.5422 7.04734C16.3425 7.34458 17.0855 7.77781 17.7384 8.32795L20.5476 7.37766L22.471 10.7092L20.1907 12.7078L21.2653 13.9334L23.5473 11.9337C23.8304 11.685 24.0186 11.3459 24.0799 10.9741C24.1411 10.6023 24.0717 10.2207 23.8835 9.8943Z" fill="#153443"/>
<path d="M18.7449 22.2278L16.634 20.1169L15.4849 21.266L18.7449 24.526L24.4499 18.821L23.3007 17.6719L18.7449 22.2278Z" fill="#153443"/>
</g>
</g>
<defs>
<clipPath id="clip0_163_8188">
<rect width="26.08" height="26.08" fill="white" transform="translate(0 0.890625)"/>
</clipPath>
</defs>
</svg>
