<svg width="27" height="27" viewBox="0 0 27 27" fill="none" xmlns="http://www.w3.org/2000/svg">
<mask id="mask0_163_8176" style="mask-type:luminance" maskUnits="userSpaceOnUse" x="0" y="0" width="27" height="27">
<path d="M26.08 0.890625H0V26.9706H26.08V0.890625Z" fill="white"/>
</mask>
<g mask="url(#mask0_163_8176)">
<path d="M13.0398 0.890625L3.25977 5.76261V17.2263C3.25977 19.8201 4.29016 22.3077 6.12426 24.1419C7.95837 25.9759 10.4459 27.0063 13.0398 27.0063C15.6336 27.0063 18.1212 25.9759 19.9553 24.1419C21.7894 22.3077 22.8198 19.8201 22.8198 17.2263V5.76261L13.0398 0.890625ZM18.6062 23.1514L13.0398 20.3784V22.1943L17.1442 24.239C15.9077 24.9591 14.5035 25.341 13.0727 25.3465C11.6418 25.3519 10.2347 24.9805 8.99278 24.2699C7.75088 23.5592 6.71792 22.5341 5.99769 21.2977C5.27747 20.0613 4.89536 18.6571 4.88977 17.2263V6.76637L13.0398 2.70637L21.1898 6.76637V9.82262L13.0398 5.76253V7.57827L21.1898 11.6383V14.6945L13.0398 10.6345V12.4503L21.1898 16.5101V17.2263C21.1902 17.9667 21.0887 18.7036 20.8882 19.4163L13.0398 15.5065V17.3221L20.2894 20.9337C19.8593 21.7638 19.29 22.5139 18.6062 23.1514Z" fill="#153443"/>
</g>
</svg>
