<svg width="18" height="18" viewBox="0 0 18 18" fill="none" xmlns="http://www.w3.org/2000/svg">
<g clip-path="url(#clip0_163_4035)">
<path d="M16.5 16.5L1.5 16.5" stroke="#344054" stroke-width="1.5" stroke-linecap="round"/>
<path opacity="0.5" d="M15.7502 16.5V4.5C15.7502 3.08579 15.7502 2.37868 15.3108 1.93934C14.8715 1.5 14.1644 1.5 12.7502 1.5H11.2502C9.83595 1.5 9.12884 1.5 8.6895 1.93934C8.33584 2.293 8.26687 2.82016 8.25342 3.75" stroke="#344054" stroke-width="1.5"/>
<path d="M11.25 16.5V6.75C11.25 5.33579 11.25 4.62868 10.8107 4.18934C10.3713 3.75 9.66421 3.75 8.25 3.75H5.25C3.83579 3.75 3.12868 3.75 2.68934 4.18934C2.25 4.62868 2.25 5.33579 2.25 6.75V16.5" stroke="#344054" stroke-width="1.5"/>
<path d="M6.75 16.5V14.25" stroke="#344054" stroke-width="1.5" stroke-linecap="round"/>
<path opacity="0.5" d="M4.5 6H9" stroke="#344054" stroke-width="1.5" stroke-linecap="round"/>
<path opacity="0.5" d="M4.5 8.25H9" stroke="#344054" stroke-width="1.5" stroke-linecap="round"/>
<path opacity="0.5" d="M4.5 10.5H9" stroke="#344054" stroke-width="1.5" stroke-linecap="round"/>
</g>
<defs>
<clipPath id="clip0_163_4035">
<rect width="18" height="18" rx="3" fill="white"/>
</clipPath>
</defs>
</svg>
