<svg width="27" height="27" viewBox="0 0 27 27" fill="none" xmlns="http://www.w3.org/2000/svg">
<g clip-path="url(#clip0_163_8161)">
<mask id="mask0_163_8161" style="mask-type:luminance" maskUnits="userSpaceOnUse" x="0" y="0" width="27" height="27">
<path d="M26.08 0.890625H0V26.9706H26.08V0.890625Z" fill="white"/>
</mask>
<g mask="url(#mask0_163_8161)">
<path d="M9.77992 25.3407H7.33492V23.7107H9.77992V13.5773L6.91553 11.8585L7.75433 10.4609L10.6188 12.1793C10.8595 12.3248 11.0588 12.5299 11.1973 12.7747C11.3359 13.0196 11.4091 13.2959 11.4099 13.5773V23.7107C11.4094 24.1428 11.2376 24.5571 10.9319 24.8627C10.6264 25.1682 10.2121 25.3402 9.77992 25.3407Z" fill="#153443"/>
<path d="M17.9299 25.3434H15.4849C15.0528 25.3429 14.6385 25.171 14.3328 24.8655C14.0273 24.5598 13.8554 24.1456 13.8549 23.7134V14.7484H18.7449C19.2002 14.7484 19.6506 14.653 20.0667 14.4684C20.483 14.2838 20.856 14.014 21.1616 13.6765C21.4672 13.339 21.6988 12.9412 21.8414 12.5088C21.9839 12.0763 22.0344 11.6188 21.9894 11.1657C21.8803 10.3413 21.4713 9.58598 20.8405 9.04413C20.2097 8.50228 19.4013 8.21188 18.5699 8.22844H17.2792L17.1352 7.59355C16.6683 5.53576 14.695 4.15344 12.2249 4.15344C11.292 4.15641 10.3794 4.42524 9.59394 4.92842C8.80847 5.43161 8.18272 6.1483 7.79006 6.99444L7.53864 7.53821L6.83529 7.44506C6.73102 7.42715 6.62563 7.41658 6.51988 7.41344C5.65528 7.41344 4.82609 7.7569 4.21471 8.36827C3.60335 8.97964 3.25988 9.80884 3.25988 10.6734C3.25988 11.5381 3.60335 12.3672 4.21471 12.9786C4.82609 13.59 5.65528 13.9334 6.51988 13.9334V15.5634C5.22297 15.5634 3.97918 15.0483 3.06213 14.1311C2.14507 13.2141 1.62988 11.9703 1.62988 10.6734C1.62988 9.37653 2.14507 8.13273 3.06213 7.21568C3.97918 6.29863 5.22297 5.78344 6.51988 5.78344C6.5414 5.78344 6.56267 5.78344 6.58394 5.78425C7.15732 4.79525 7.97985 3.97376 8.96959 3.40163C9.95931 2.82951 11.0817 2.52672 12.2249 2.52344C15.2231 2.52344 17.6791 4.13518 18.5425 6.59844H18.5699C19.806 6.58463 21.0039 7.0271 21.9343 7.84121C22.8646 8.65531 23.4622 9.78386 23.6125 11.011C23.679 11.6902 23.6026 12.3758 23.3882 13.0237C23.1739 13.6716 22.8263 14.2676 22.3678 14.7731C21.9094 15.2787 21.3502 15.6826 20.7263 15.9592C20.1022 16.2356 19.4274 16.3784 18.7449 16.3784H15.4849V23.7134H17.9299V25.3434Z" fill="#153443"/>
</g>
</g>
<defs>
<clipPath id="clip0_163_8161">
<rect width="26.08" height="26.08" fill="white" transform="translate(0 0.890625)"/>
</clipPath>
</defs>
</svg>
