<svg width="24" height="25" viewBox="0 0 24 25" fill="none" xmlns="http://www.w3.org/2000/svg">
<path d="M7.55016 22.6999C16.6045 22.6999 21.5583 15.1967 21.5583 8.69181C21.5583 8.48087 21.5536 8.26525 21.5442 8.05431C22.5079 7.35741 23.3395 6.49421 24 5.50525C23.1025 5.90455 22.1496 6.16533 21.1739 6.27869C22.2013 5.66286 22.9705 4.69542 23.3391 3.55572C22.3726 4.12851 21.3156 4.53256 20.2134 4.75056C19.4708 3.96151 18.489 3.43907 17.4197 3.264C16.3504 3.08894 15.2532 3.271 14.2977 3.78205C13.3423 4.29309 12.5818 5.10466 12.1338 6.09126C11.6859 7.07787 11.5754 8.18457 11.8195 9.24025C9.86249 9.14204 7.94794 8.63366 6.19998 7.74805C4.45203 6.86244 2.90969 5.61939 1.67297 4.09947C1.0444 5.18319 0.852057 6.4656 1.13503 7.68604C1.418 8.90649 2.15506 9.9734 3.19641 10.6699C2.41463 10.6451 1.64998 10.4346 0.965625 10.0559V10.1168C0.964925 11.2541 1.3581 12.3565 2.07831 13.2367C2.79852 14.1169 3.80132 14.7205 4.91625 14.9449C4.19206 15.1431 3.43198 15.1719 2.69484 15.0293C3.00945 16.0074 3.62157 16.8628 4.44577 17.4763C5.26997 18.0897 6.26512 18.4305 7.29234 18.4512C5.54842 19.8211 3.39417 20.5641 1.17656 20.5606C0.783287 20.56 0.390399 20.5359 0 20.4884C2.25286 21.9337 4.87353 22.7013 7.55016 22.6999Z" fill="#98A2B3"/>
</svg>
